<?xml version="1.0" encoding="UTF-8"?>
<!--Generator: Apple Native CoreSVG 123-->
<!DOCTYPE svg
PUBLIC "-//W3C//DTD SVG 1.1//EN"
       "http://www.w3.org/Graphics/SVG/1.1/DTD/svg11.dtd">
<svg version="1.1" xmlns="http://www.w3.org/2000/svg" xmlns:xlink="http://www.w3.org/1999/xlink" width="3300" height="2200">
 <!--glyph: "uni1003DA.medium", point size: 100.000000, font version: "Version 15.0d5e5", template writer version: "5"-->
 <g id="Notes">
  <rect height="2200" id="artboard" style="fill:white;opacity:1" width="3300" x="0" y="0"/>
  <line id="" style="fill:none;stroke:black;opacity:1;stroke-width:0.5;" x1="263" x2="3036" y1="292" y2="292"/>
  <text style="stroke:none;fill:black;font-family:-apple-system,&quot;SF Pro Display&quot;,&quot;SF Pro Text&quot;,Helvetica,sans-serif;font-weight:bold;" transform="matrix(1 0 0 1 263 322)">Weight/Scale Variations</text>
  <text style="stroke:none;fill:black;font-family:-apple-system,&quot;SF Pro Display&quot;,&quot;SF Pro Text&quot;,Helvetica,sans-serif;text-anchor:middle;" transform="matrix(1 0 0 1 559.711 322)">Ultralight</text>
  <text style="stroke:none;fill:black;font-family:-apple-system,&quot;SF Pro Display&quot;,&quot;SF Pro Text&quot;,Helvetica,sans-serif;text-anchor:middle;" transform="matrix(1 0 0 1 856.422 322)">Thin</text>
  <text style="stroke:none;fill:black;font-family:-apple-system,&quot;SF Pro Display&quot;,&quot;SF Pro Text&quot;,Helvetica,sans-serif;text-anchor:middle;" transform="matrix(1 0 0 1 1153.13 322)">Light</text>
  <text style="stroke:none;fill:black;font-family:-apple-system,&quot;SF Pro Display&quot;,&quot;SF Pro Text&quot;,Helvetica,sans-serif;text-anchor:middle;" transform="matrix(1 0 0 1 1449.84 322)">Regular</text>
  <text style="stroke:none;fill:black;font-family:-apple-system,&quot;SF Pro Display&quot;,&quot;SF Pro Text&quot;,Helvetica,sans-serif;text-anchor:middle;" transform="matrix(1 0 0 1 1746.56 322)">Medium</text>
  <text style="stroke:none;fill:black;font-family:-apple-system,&quot;SF Pro Display&quot;,&quot;SF Pro Text&quot;,Helvetica,sans-serif;text-anchor:middle;" transform="matrix(1 0 0 1 2043.27 322)">Semibold</text>
  <text style="stroke:none;fill:black;font-family:-apple-system,&quot;SF Pro Display&quot;,&quot;SF Pro Text&quot;,Helvetica,sans-serif;text-anchor:middle;" transform="matrix(1 0 0 1 2339.98 322)">Bold</text>
  <text style="stroke:none;fill:black;font-family:-apple-system,&quot;SF Pro Display&quot;,&quot;SF Pro Text&quot;,Helvetica,sans-serif;text-anchor:middle;" transform="matrix(1 0 0 1 2636.69 322)">Heavy</text>
  <text style="stroke:none;fill:black;font-family:-apple-system,&quot;SF Pro Display&quot;,&quot;SF Pro Text&quot;,Helvetica,sans-serif;text-anchor:middle;" transform="matrix(1 0 0 1 2933.4 322)">Black</text>
  <line id="" style="fill:none;stroke:black;opacity:1;stroke-width:0.5;" x1="263" x2="3036" y1="1903" y2="1903"/>
  <g id="" transform="matrix(1 0 0 1 263 1933)">
   <path d="M 9.24805 0.830078 C 13.5547 0.830078 17.1387 -2.74414 17.1387 -7.05078 C 17.1387 -11.3574 13.5449 -14.9316 9.23828 -14.9316 C 4.94141 -14.9316 1.36719 -11.3574 1.36719 -7.05078 C 1.36719 -2.74414 4.95117 0.830078 9.24805 0.830078 Z M 9.24805 -0.654297 C 5.70312 -0.654297 2.87109 -3.49609 2.87109 -7.05078 C 2.87109 -10.6055 5.69336 -13.4473 9.23828 -13.4473 C 12.793 -13.4473 15.6348 -10.6055 15.6445 -7.05078 C 15.6543 -3.49609 12.8027 -0.654297 9.24805 -0.654297 Z M 9.22852 -3.42773 C 9.69727 -3.42773 9.9707 -3.74023 9.9707 -4.25781 L 9.9707 -6.31836 L 12.1973 -6.31836 C 12.6953 -6.31836 13.0371 -6.57227 13.0371 -7.04102 C 13.0371 -7.51953 12.7148 -7.7832 12.1973 -7.7832 L 9.9707 -7.7832 L 9.9707 -10.0098 C 9.9707 -10.5273 9.69727 -10.8496 9.22852 -10.8496 C 8.75977 -10.8496 8.50586 -10.5078 8.50586 -10.0098 L 8.50586 -7.7832 L 6.29883 -7.7832 C 5.78125 -7.7832 5.44922 -7.51953 5.44922 -7.04102 C 5.44922 -6.57227 5.80078 -6.31836 6.29883 -6.31836 L 8.50586 -6.31836 L 8.50586 -4.25781 C 8.50586 -3.75977 8.75977 -3.42773 9.22852 -3.42773 Z"/>
  </g>
  <g id="" transform="matrix(1 0 0 1 281.506 1933)">
   <path d="M 11.709 2.91016 C 17.1484 2.91016 21.6699 -1.60156 21.6699 -7.05078 C 21.6699 -12.4902 17.1387 -17.0117 11.6992 -17.0117 C 6.25 -17.0117 1.74805 -12.4902 1.74805 -7.05078 C 1.74805 -1.60156 6.25977 2.91016 11.709 2.91016 Z M 11.709 1.25 C 7.09961 1.25 3.41797 -2.44141 3.41797 -7.05078 C 3.41797 -11.6504 7.08984 -15.3516 11.6992 -15.3516 C 16.2988 -15.3516 20 -11.6504 20.0098 -7.05078 C 20.0195 -2.44141 16.3086 1.25 11.709 1.25 Z M 11.6797 -2.41211 C 12.207 -2.41211 12.5195 -2.77344 12.5195 -3.33984 L 12.5195 -6.23047 L 15.5762 -6.23047 C 16.123 -6.23047 16.5039 -6.51367 16.5039 -7.03125 C 16.5039 -7.55859 16.1426 -7.86133 15.5762 -7.86133 L 12.5195 -7.86133 L 12.5195 -10.9277 C 12.5195 -11.5039 12.207 -11.8555 11.6797 -11.8555 C 11.1621 -11.8555 10.8789 -11.4844 10.8789 -10.9277 L 10.8789 -7.86133 L 7.83203 -7.86133 C 7.25586 -7.86133 6.89453 -7.55859 6.89453 -7.03125 C 6.89453 -6.51367 7.28516 -6.23047 7.83203 -6.23047 L 10.8789 -6.23047 L 10.8789 -3.33984 C 10.8789 -2.79297 11.1621 -2.41211 11.6797 -2.41211 Z"/>
  </g>
  <g id="" transform="matrix(1 0 0 1 304.914 1933)">
   <path d="M 14.9707 5.67383 C 21.9336 5.67383 27.6855 -0.078125 27.6855 -7.04102 C 27.6855 -14.0039 21.9238 -19.7559 14.9609 -19.7559 C 7.99805 -19.7559 2.25586 -14.0039 2.25586 -7.04102 C 2.25586 -0.078125 8.00781 5.67383 14.9707 5.67383 Z M 14.9707 3.85742 C 8.92578 3.85742 4.08203 -1.00586 4.08203 -7.04102 C 4.08203 -13.0762 8.91602 -17.9395 14.9609 -17.9395 C 20.9961 -17.9395 25.8594 -13.0762 25.8691 -7.04102 C 25.8789 -1.00586 21.0059 3.85742 14.9707 3.85742 Z M 14.9414 -1.06445 C 15.5176 -1.06445 15.8594 -1.45508 15.8594 -2.06055 L 15.8594 -6.13281 L 20.0977 -6.13281 C 20.6934 -6.13281 21.1133 -6.46484 21.1133 -7.02148 C 21.1133 -7.59766 20.7227 -7.93945 20.0977 -7.93945 L 15.8594 -7.93945 L 15.8594 -12.1875 C 15.8594 -12.8027 15.5176 -13.1934 14.9414 -13.1934 C 14.3848 -13.1934 14.0625 -12.7832 14.0625 -12.1875 L 14.0625 -7.93945 L 9.82422 -7.93945 C 9.20898 -7.93945 8.80859 -7.59766 8.80859 -7.02148 C 8.80859 -6.46484 9.23828 -6.13281 9.82422 -6.13281 L 14.0625 -6.13281 L 14.0625 -2.06055 C 14.0625 -1.47461 14.3848 -1.06445 14.9414 -1.06445 Z"/>
  </g>
  <text style="stroke:none;fill:black;font-family:-apple-system,&quot;SF Pro Display&quot;,&quot;SF Pro Text&quot;,Helvetica,sans-serif;font-weight:bold;" transform="matrix(1 0 0 1 263 1953)">Design Variations</text>
  <text style="stroke:none;fill:black;font-family:-apple-system,&quot;SF Pro Display&quot;,&quot;SF Pro Text&quot;,Helvetica,sans-serif;" transform="matrix(1 0 0 1 263 1971)">Symbols are supported in up to nine weights and three scales.</text>
  <text style="stroke:none;fill:black;font-family:-apple-system,&quot;SF Pro Display&quot;,&quot;SF Pro Text&quot;,Helvetica,sans-serif;" transform="matrix(1 0 0 1 263 1989)">For optimal layout with text and other symbols, vertically align</text>
  <text style="stroke:none;fill:black;font-family:-apple-system,&quot;SF Pro Display&quot;,&quot;SF Pro Text&quot;,Helvetica,sans-serif;" transform="matrix(1 0 0 1 263 2007)">symbols with the adjacent text.</text>
  <rect height="14" id="" style="fill:#00AEEF;stroke:none;opacity:0.4;" width="3" x="776" y="1919"/>
  <g id="" transform="matrix(1 0 0 1 779 1933)">
   <path d="M 10.5273 0 L 12.373 0 L 7.17773 -14.0918 L 5.43945 -14.0918 L 0.244141 0 L 2.08984 0 L 3.50586 -4.0332 L 9.11133 -4.0332 Z M 6.2793 -11.9531 L 6.33789 -11.9531 L 8.59375 -5.52734 L 4.02344 -5.52734 Z"/>
  </g>
  <rect height="14" id="" style="fill:#00AEEF;stroke:none;opacity:0.4;" width="3" x="791.617" y="1919"/>
  <text style="stroke:none;fill:black;font-family:-apple-system,&quot;SF Pro Display&quot;,&quot;SF Pro Text&quot;,Helvetica,sans-serif;font-weight:bold;" transform="matrix(1 0 0 1 776 1953)">Margins</text>
  <text style="stroke:none;fill:black;font-family:-apple-system,&quot;SF Pro Display&quot;,&quot;SF Pro Text&quot;,Helvetica,sans-serif;" transform="matrix(1 0 0 1 776 1971)">Leading and trailing margins on the left and right side of each symbol</text>
  <text style="stroke:none;fill:black;font-family:-apple-system,&quot;SF Pro Display&quot;,&quot;SF Pro Text&quot;,Helvetica,sans-serif;" transform="matrix(1 0 0 1 776 1989)">can be adjusted by modifying the width of the blue rectangles.</text>
  <text style="stroke:none;fill:black;font-family:-apple-system,&quot;SF Pro Display&quot;,&quot;SF Pro Text&quot;,Helvetica,sans-serif;" transform="matrix(1 0 0 1 776 2007)">Modifications are automatically applied proportionally to all</text>
  <text style="stroke:none;fill:black;font-family:-apple-system,&quot;SF Pro Display&quot;,&quot;SF Pro Text&quot;,Helvetica,sans-serif;" transform="matrix(1 0 0 1 776 2025)">scales and weights.</text>
  <g id="" transform="matrix(1 0 0 1 1289 1933)">
   <path d="M 2.83203 3.61328 L 4.375 5.15625 C 5.22461 5.98633 6.19141 5.91797 7.05078 4.9707 L 17.2754 -6.16211 C 17.6953 -5.86914 18.0859 -5.87891 18.5645 -5.97656 L 19.6094 -6.19141 L 20.3027 -5.49805 L 20.2539 -4.98047 C 20.1855 -4.44336 20.3418 -4.0332 20.8398 -3.53516 L 21.6602 -2.72461 C 22.1582 -2.2168 22.8223 -2.1875 23.3008 -2.66602 L 26.5527 -5.91797 C 27.0312 -6.39648 27.002 -7.05078 26.5039 -7.55859 L 25.6836 -8.37891 C 25.1855 -8.87695 24.7656 -9.05273 24.2383 -8.97461 L 23.7109 -8.91602 L 23.0469 -9.58008 L 23.3398 -10.7227 C 23.4766 -11.2891 23.3301 -11.748 22.7148 -12.3535 L 20.3027 -14.7559 C 16.7578 -18.2812 12.2168 -18.1738 9.11133 -15.0391 C 8.68164 -14.6094 8.64258 -14.0234 8.91602 -13.5938 C 9.14062 -13.2227 9.61914 -12.998 10.2734 -13.1641 C 11.7871 -13.5449 13.3008 -13.4277 14.7852 -12.4219 L 14.1602 -10.8398 C 13.9258 -10.2539 13.9453 -9.77539 14.1797 -9.33594 L 3.01758 0.9375 C 2.08008 1.80664 1.97266 2.75391 2.83203 3.61328 Z M 10.6641 -14.6484 C 13.3301 -16.6406 16.6504 -16.3184 19.0527 -13.916 L 21.6797 -11.3086 C 21.9141 -11.0742 21.9434 -10.8887 21.875 -10.5957 L 21.5039 -9.0332 L 23.0762 -7.46094 L 24.0332 -7.54883 C 24.3164 -7.57812 24.4043 -7.55859 24.6387 -7.33398 L 25.2539 -6.70898 L 22.5098 -3.95508 L 21.8848 -4.58008 C 21.6602 -4.80469 21.6406 -4.89258 21.6699 -5.17578 L 21.7578 -6.14258 L 20.1953 -7.70508 L 18.5742 -7.39258 C 18.291 -7.33398 18.1445 -7.33398 17.9004 -7.57812 L 15.7324 -9.75586 C 15.498 -9.99023 15.4688 -10.127 15.5957 -10.4395 L 16.5527 -12.7246 C 14.9512 -14.2578 12.832 -15.1074 10.791 -14.4531 C 10.7031 -14.4238 10.6445 -14.4434 10.6152 -14.4824 C 10.5859 -14.5312 10.5859 -14.5801 10.6641 -14.6484 Z M 4.10156 2.91016 C 3.60352 2.41211 3.7793 2.10938 4.11133 1.80664 L 15.0781 -8.31055 L 16.2988 -7.08008 L 6.15234 3.84766 C 5.84961 4.17969 5.46875 4.27734 5.05859 3.87695 Z"/>
  </g>
  <text style="stroke:none;fill:black;font-family:-apple-system,&quot;SF Pro Display&quot;,&quot;SF Pro Text&quot;,Helvetica,sans-serif;font-weight:bold;" transform="matrix(1 0 0 1 1289 1953)">Exporting</text>
  <text style="stroke:none;fill:black;font-family:-apple-system,&quot;SF Pro Display&quot;,&quot;SF Pro Text&quot;,Helvetica,sans-serif;" transform="matrix(1 0 0 1 1289 1971)">Symbols should be outlined when exporting to ensure the</text>
  <text style="stroke:none;fill:black;font-family:-apple-system,&quot;SF Pro Display&quot;,&quot;SF Pro Text&quot;,Helvetica,sans-serif;" transform="matrix(1 0 0 1 1289 1989)">design is preserved when submitting to Xcode.</text>
  <text id="template-version" style="stroke:none;fill:black;font-family:-apple-system,&quot;SF Pro Display&quot;,&quot;SF Pro Text&quot;,Helvetica,sans-serif;text-anchor:end;" transform="matrix(1 0 0 1 3036 1933)">Template v.1.0</text>
  <text style="stroke:none;fill:black;font-family:-apple-system,&quot;SF Pro Display&quot;,&quot;SF Pro Text&quot;,Helvetica,sans-serif;text-anchor:end;" transform="matrix(1 0 0 1 3036 1951)">Generated from sidebar.left</text>
  <text style="stroke:none;fill:black;font-family:-apple-system,&quot;SF Pro Display&quot;,&quot;SF Pro Text&quot;,Helvetica,sans-serif;text-anchor:end;" transform="matrix(1 0 0 1 3036 1969)">Typeset at 100 points</text>
  <text style="stroke:none;fill:black;font-family:-apple-system,&quot;SF Pro Display&quot;,&quot;SF Pro Text&quot;,Helvetica,sans-serif;" transform="matrix(1 0 0 1 263 726)">Small</text>
  <text style="stroke:none;fill:black;font-family:-apple-system,&quot;SF Pro Display&quot;,&quot;SF Pro Text&quot;,Helvetica,sans-serif;" transform="matrix(1 0 0 1 263 1156)">Medium</text>
  <text style="stroke:none;fill:black;font-family:-apple-system,&quot;SF Pro Display&quot;,&quot;SF Pro Text&quot;,Helvetica,sans-serif;" transform="matrix(1 0 0 1 263 1586)">Large</text>
 </g>
 <g id="Guides">
  <g id="H-reference" style="fill:#27AAE1;stroke:none;" transform="matrix(1 0 0 1 339 696)">
   <path d="M 54.9316 0 L 57.666 0 L 30.5664 -70.459 L 28.0762 -70.459 L 0.976562 0 L 3.66211 0 L 12.9395 -24.4629 L 45.7031 -24.4629 Z M 29.1992 -67.0898 L 29.4434 -67.0898 L 44.8242 -26.709 L 13.8184 -26.709 Z"/>
  </g>
  <line id="Baseline-S" style="fill:none;stroke:#27AAE1;opacity:1;stroke-width:0.577;" x1="263" x2="3036" y1="696" y2="696"/>
  <line id="Capline-S" style="fill:none;stroke:#27AAE1;opacity:1;stroke-width:0.577;" x1="263" x2="3036" y1="625.541" y2="625.541"/>
  <g id="H-reference" style="fill:#27AAE1;stroke:none;" transform="matrix(1 0 0 1 339 1126)">
   <path d="M 54.9316 0 L 57.666 0 L 30.5664 -70.459 L 28.0762 -70.459 L 0.976562 0 L 3.66211 0 L 12.9395 -24.4629 L 45.7031 -24.4629 Z M 29.1992 -67.0898 L 29.4434 -67.0898 L 44.8242 -26.709 L 13.8184 -26.709 Z"/>
  </g>
  <line id="Baseline-M" style="fill:none;stroke:#27AAE1;opacity:1;stroke-width:0.577;" x1="263" x2="3036" y1="1126" y2="1126"/>
  <line id="Capline-M" style="fill:none;stroke:#27AAE1;opacity:1;stroke-width:0.577;" x1="263" x2="3036" y1="1055.54" y2="1055.54"/>
  <g id="H-reference" style="fill:#27AAE1;stroke:none;" transform="matrix(1 0 0 1 339 1556)">
   <path d="M 54.9316 0 L 57.666 0 L 30.5664 -70.459 L 28.0762 -70.459 L 0.976562 0 L 3.66211 0 L 12.9395 -24.4629 L 45.7031 -24.4629 Z M 29.1992 -67.0898 L 29.4434 -67.0898 L 44.8242 -26.709 L 13.8184 -26.709 Z"/>
  </g>
  <line id="Baseline-L" style="fill:none;stroke:#27AAE1;opacity:1;stroke-width:0.577;" x1="263" x2="3036" y1="1556" y2="1556"/>
  <line id="Capline-L" style="fill:none;stroke:#27AAE1;opacity:1;stroke-width:0.577;" x1="263" x2="3036" y1="1485.54" y2="1485.54"/>
  <rect height="119.336" id="left-margin" style="fill:#00AEEF;stroke:none;opacity:0.4;" width="12.4512" x="1379.8" y="1030.79"/>
  <rect height="119.336" id="right-margin" style="fill:#00AEEF;stroke:none;opacity:0.4;" width="12.4512" x="1507.44" y="1030.79"/>
 </g>
 <g id="Symbols">
  <g id="Black-L" transform="matrix(1 0 0 1 2841.51 1556)">
   <path d="M 39.9902 26.5137 L 143.799 26.5137 C 159.082 26.5137 167.725 17.8711 167.725 2.68555 L 167.725 -73.0957 C 167.725 -88.2812 159.082 -96.875 143.799 -96.875 L 39.9902 -96.875 C 24.7559 -96.875 16.0645 -88.2812 16.0645 -73.0957 L 16.0645 2.68555 C 16.0645 17.8711 24.7559 26.5137 39.9902 26.5137 Z M 42.7246 6.29883 C 38.4766 6.29883 36.3281 4.39453 36.3281 -0.146484 L 36.3281 -70.2148 C 36.3281 -74.7559 38.4766 -76.6602 42.7246 -76.6602 L 73.3887 -76.6602 L 73.3887 6.29883 Z M 141.113 -76.6602 C 145.312 -76.6602 147.461 -74.7559 147.461 -70.2148 L 147.461 -0.146484 C 147.461 4.39453 145.312 6.29883 141.113 6.29883 L 91.7969 6.29883 L 91.7969 -76.6602 Z M 60.2539 -54.6387 C 63.6719 -54.6387 66.3574 -57.2754 66.3574 -60.3516 C 66.3574 -63.4766 63.6719 -66.1133 60.2539 -66.1133 L 49.5117 -66.1133 C 46.0938 -66.1133 43.4082 -63.4766 43.4082 -60.3516 C 43.4082 -57.2754 46.0938 -54.6387 49.5117 -54.6387 Z M 60.2539 -35.9375 C 63.6719 -35.9375 66.3574 -38.5742 66.3574 -41.6504 C 66.3574 -44.7754 63.6719 -47.3633 60.2539 -47.3633 L 49.5117 -47.3633 C 46.0938 -47.3633 43.4082 -44.7754 43.4082 -41.6504 C 43.4082 -38.5742 46.0938 -35.9375 49.5117 -35.9375 Z M 60.2539 -17.1875 C 63.6719 -17.1875 66.3574 -19.8242 66.3574 -22.9492 C 66.3574 -26.0742 63.6719 -28.6621 60.2539 -28.6621 L 49.5117 -28.6621 C 46.0938 -28.6621 43.4082 -26.0742 43.4082 -22.9492 C 43.4082 -19.8242 46.0938 -17.1875 49.5117 -17.1875 Z"/>
  </g>
  <g id="Heavy-L" transform="matrix(1 0 0 1 2545.23 1556)">
   <path d="M 38.8184 25.4883 L 144.092 25.4883 C 158.74 25.4883 166.846 17.4316 166.846 2.88086 L 166.846 -73.2422 C 166.846 -87.793 158.74 -95.8496 144.092 -95.8496 L 38.8184 -95.8496 C 24.2188 -95.8496 16.0645 -87.793 16.0645 -73.2422 L 16.0645 2.88086 C 16.0645 17.4316 24.2188 25.4883 38.8184 25.4883 Z M 40.9668 8.00781 C 36.1328 8.00781 33.5938 5.71289 33.5938 0.585938 L 33.5938 -70.9473 C 33.5938 -76.0742 36.1328 -78.3691 40.9668 -78.3691 L 71.0449 -78.3691 L 71.0449 8.00781 Z M 141.992 -78.3691 C 146.777 -78.3691 149.365 -76.0742 149.365 -70.9473 L 149.365 0.585938 C 149.365 5.71289 146.777 8.00781 141.992 8.00781 L 87.0605 8.00781 L 87.0605 -78.3691 Z M 58.1543 -56.0059 C 61.1328 -56.0059 63.5254 -58.3984 63.5254 -61.1328 C 63.5254 -63.8672 61.1328 -66.2598 58.1543 -66.2598 L 46.5332 -66.2598 C 43.5547 -66.2598 41.1133 -63.8672 41.1133 -61.1328 C 41.1133 -58.3984 43.5547 -56.0059 46.5332 -56.0059 Z M 58.1543 -37.793 C 61.1328 -37.793 63.5254 -40.1855 63.5254 -42.9199 C 63.5254 -45.7031 61.1328 -48.0469 58.1543 -48.0469 L 46.5332 -48.0469 C 43.5547 -48.0469 41.1133 -45.7031 41.1133 -42.9199 C 41.1133 -40.1855 43.5547 -37.793 46.5332 -37.793 Z M 58.1543 -19.5801 C 61.1328 -19.5801 63.5254 -21.9727 63.5254 -24.7559 C 63.5254 -27.4902 61.1328 -29.834 58.1543 -29.834 L 46.5332 -29.834 C 43.5547 -29.834 41.1133 -27.4902 41.1133 -24.7559 C 41.1133 -21.9727 43.5547 -19.5801 46.5332 -19.5801 Z"/>
  </g>
  <g id="Bold-L" transform="matrix(1 0 0 1 2249.01 1556)">
   <path d="M 37.5488 24.3652 L 144.434 24.3652 C 158.35 24.3652 165.869 16.8945 165.869 3.07617 L 165.869 -73.3887 C 165.869 -87.207 158.35 -94.7266 144.434 -94.7266 L 37.5488 -94.7266 C 23.6328 -94.7266 16.0645 -87.2559 16.0645 -73.3887 L 16.0645 3.07617 C 16.0645 16.8945 23.6328 24.3652 37.5488 24.3652 Z M 38.9648 9.91211 C 33.4473 9.91211 30.5176 7.17773 30.5176 1.41602 L 30.5176 -71.7285 C 30.5176 -77.5391 33.4473 -80.2734 38.9648 -80.2734 L 68.3594 -80.2734 L 68.3594 9.91211 Z M 142.969 -80.2734 C 148.438 -80.2734 151.416 -77.5391 151.416 -71.7285 L 151.416 1.41602 C 151.416 7.17773 148.438 9.91211 142.969 9.91211 L 81.7871 9.91211 L 81.7871 -80.2734 Z M 55.7617 -57.5195 C 58.3008 -57.5195 60.4004 -59.6191 60.4004 -61.9629 C 60.4004 -64.3555 58.3008 -66.4062 55.7617 -66.4062 L 43.2129 -66.4062 C 40.6738 -66.4062 38.5742 -64.3555 38.5742 -61.9629 C 38.5742 -59.6191 40.6738 -57.5195 43.2129 -57.5195 Z M 55.7617 -39.9414 C 58.3008 -39.9414 60.4004 -41.9922 60.4004 -44.3848 C 60.4004 -46.7773 58.3008 -48.7793 55.7617 -48.7793 L 43.2129 -48.7793 C 40.6738 -48.7793 38.5742 -46.7773 38.5742 -44.3848 C 38.5742 -41.9922 40.6738 -39.9414 43.2129 -39.9414 Z M 55.7617 -22.3145 C 58.3008 -22.3145 60.4004 -24.3652 60.4004 -26.709 C 60.4004 -29.1016 58.3008 -31.1523 55.7617 -31.1523 L 43.2129 -31.1523 C 40.6738 -31.1523 38.5742 -29.1016 38.5742 -26.709 C 38.5742 -24.3652 40.6738 -22.3145 43.2129 -22.3145 Z"/>
  </g>
  <g id="Semibold-L" transform="matrix(1 0 0 1 1952.62 1556)">
   <path d="M 36.6699 23.584 L 144.629 23.584 C 158.105 23.584 165.186 16.5039 165.186 3.17383 L 165.186 -73.5352 C 165.186 -86.8164 158.105 -93.9453 144.629 -93.9453 L 36.6699 -93.9453 C 23.2422 -93.9453 16.0645 -86.8652 16.0645 -73.5352 L 16.0645 3.17383 C 16.0645 16.5527 23.2422 23.584 36.6699 23.584 Z M 37.6465 11.2793 C 31.6406 11.2793 28.418 8.20312 28.418 1.95312 L 28.418 -72.3145 C 28.418 -78.5156 31.6406 -81.5918 37.6465 -81.5918 L 66.5527 -81.5918 L 66.5527 11.2793 Z M 143.652 -81.5918 C 149.561 -81.5918 152.881 -78.5156 152.881 -72.3145 L 152.881 1.95312 C 152.881 8.20312 149.561 11.2793 143.652 11.2793 L 78.1738 11.2793 L 78.1738 -81.5918 Z M 54.1504 -58.5938 C 56.3965 -58.5938 58.252 -60.498 58.252 -62.5488 C 58.252 -64.6973 56.3965 -66.5039 54.1504 -66.5039 L 40.918 -66.5039 C 38.6719 -66.5039 36.8164 -64.6973 36.8164 -62.5488 C 36.8164 -60.498 38.6719 -58.5938 40.918 -58.5938 Z M 54.1504 -41.3574 C 56.3965 -41.3574 58.252 -43.2129 58.252 -45.3613 C 58.252 -47.4609 56.3965 -49.2676 54.1504 -49.2676 L 40.918 -49.2676 C 38.6719 -49.2676 36.8164 -47.4609 36.8164 -45.3613 C 36.8164 -43.2129 38.6719 -41.3574 40.918 -41.3574 Z M 54.1504 -24.1699 C 56.3965 -24.1699 58.252 -25.9766 58.252 -28.125 C 58.252 -30.2246 56.3965 -32.0312 54.1504 -32.0312 L 40.918 -32.0312 C 38.6719 -32.0312 36.8164 -30.2246 36.8164 -28.125 C 36.8164 -25.9766 38.6719 -24.1699 40.918 -24.1699 Z"/>
  </g>
  <g id="Medium-L" transform="matrix(1 0 0 1 1656.17 1556)">
   <path d="M 35.9863 22.998 L 144.775 22.998 C 157.91 22.998 164.697 16.2109 164.697 3.27148 L 164.697 -73.6328 C 164.697 -86.5234 157.91 -93.3105 144.775 -93.3105 L 35.9863 -93.3105 C 22.9004 -93.3105 16.0645 -86.5723 16.0645 -73.6328 L 16.0645 3.27148 C 16.0645 16.2598 22.9004 22.998 35.9863 22.998 Z M 36.6211 12.2559 C 30.2734 12.2559 26.8066 8.98438 26.8066 2.39258 L 26.8066 -72.7051 C 26.8066 -79.2969 30.2734 -82.6172 36.6211 -82.6172 L 65.1855 -82.6172 L 65.1855 12.2559 Z M 144.189 -82.6172 C 150.391 -82.6172 153.955 -79.2969 153.955 -72.7051 L 153.955 2.39258 C 153.955 8.98438 150.391 12.2559 144.189 12.2559 L 75.3906 12.2559 L 75.3906 -82.6172 Z M 52.8809 -59.4238 C 54.9316 -59.4238 56.5918 -61.1328 56.5918 -62.9883 C 56.5918 -64.9414 54.9316 -66.6016 52.8809 -66.6016 L 39.1602 -66.6016 C 37.1582 -66.6016 35.498 -64.9414 35.498 -62.9883 C 35.498 -61.1328 37.1582 -59.4238 39.1602 -59.4238 Z M 52.8809 -42.4805 C 54.9316 -42.4805 56.5918 -44.1406 56.5918 -46.0938 C 56.5918 -48.0469 54.9316 -49.6582 52.8809 -49.6582 L 39.1602 -49.6582 C 37.1582 -49.6582 35.498 -48.0469 35.498 -46.0938 C 35.498 -44.1406 37.1582 -42.4805 39.1602 -42.4805 Z M 52.8809 -25.5859 C 54.9316 -25.5859 56.5918 -27.1973 56.5918 -29.1504 C 56.5918 -31.1035 54.9316 -32.7148 52.8809 -32.7148 L 39.1602 -32.7148 C 37.1582 -32.7148 35.498 -31.1035 35.498 -29.1504 C 35.498 -27.1973 37.1582 -25.5859 39.1602 -25.5859 Z"/>
  </g>
  <g id="Regular-L" transform="matrix(1 0 0 1 1359.81 1556)">
   <path d="M 35.1074 22.2168 L 145.02 22.2168 C 157.666 22.2168 164.014 15.8691 164.014 3.41797 L 164.014 -73.7305 C 164.014 -86.1816 157.666 -92.5293 145.02 -92.5293 L 35.1074 -92.5293 C 22.5098 -92.5293 16.0645 -86.2305 16.0645 -73.7305 L 16.0645 3.41797 C 16.0645 15.918 22.5098 22.2168 35.1074 22.2168 Z M 35.2539 13.5742 C 28.4668 13.5742 24.7559 9.96094 24.7559 2.97852 L 24.7559 -73.291 C 24.7559 -80.2734 28.4668 -83.8867 35.2539 -83.8867 L 63.3789 -83.8867 L 63.3789 13.5742 Z M 144.824 -83.8867 C 151.514 -83.8867 155.371 -80.2734 155.371 -73.291 L 155.371 2.97852 C 155.371 9.96094 151.514 13.5742 144.824 13.5742 L 71.8262 13.5742 L 71.8262 -83.8867 Z M 51.2695 -60.4492 C 52.9785 -60.4492 54.4434 -61.9629 54.4434 -63.5742 C 54.4434 -65.2832 52.9785 -66.6992 51.2695 -66.6992 L 36.9141 -66.6992 C 35.2051 -66.6992 33.7402 -65.2832 33.7402 -63.5742 C 33.7402 -61.9629 35.2051 -60.4492 36.9141 -60.4492 Z M 51.2695 -43.9453 C 52.9785 -43.9453 54.4434 -45.4102 54.4434 -47.0703 C 54.4434 -48.7305 52.9785 -50.1465 51.2695 -50.1465 L 36.9141 -50.1465 C 35.2051 -50.1465 33.7402 -48.7305 33.7402 -47.0703 C 33.7402 -45.4102 35.2051 -43.9453 36.9141 -43.9453 Z M 51.2695 -27.4414 C 52.9785 -27.4414 54.4434 -28.8574 54.4434 -30.5176 C 54.4434 -32.1777 52.9785 -33.5938 51.2695 -33.5938 L 36.9141 -33.5938 C 35.2051 -33.5938 33.7402 -32.1777 33.7402 -30.5176 C 33.7402 -28.8574 35.2051 -27.4414 36.9141 -27.4414 Z"/>
  </g>
  <g id="Light-L" transform="matrix(1 0 0 1 1063.53 1556)">
   <path d="M 34.082 21.4355 L 145.166 21.4355 C 157.031 21.4355 163.135 15.2344 163.135 3.56445 L 163.135 -73.8281 C 163.135 -85.5469 157.031 -91.6992 145.166 -91.6992 L 34.082 -91.6992 C 22.2168 -91.6992 16.0645 -85.6445 16.0645 -73.8281 L 16.0645 3.56445 C 16.0645 15.3809 22.2168 21.4355 34.082 21.4355 Z M 34.2285 14.7949 C 26.709 14.7949 22.7051 10.8398 22.7051 3.22266 L 22.7051 -73.4863 C 22.7051 -81.1523 26.709 -85.0586 34.2285 -85.0586 L 62.4023 -85.0586 L 62.4023 14.7949 Z M 144.971 -85.0586 C 152.295 -85.0586 156.494 -81.1523 156.494 -73.4863 L 156.494 3.22266 C 156.494 10.8398 152.295 14.7949 144.971 14.7949 L 68.8965 14.7949 L 68.8965 -85.0586 Z M 50.3418 -61.5723 C 51.8066 -61.5723 52.9785 -62.793 52.9785 -64.1113 C 52.9785 -65.5273 51.8066 -66.6504 50.3418 -66.6504 L 34.8145 -66.6504 C 33.3984 -66.6504 32.1777 -65.5273 32.1777 -64.1113 C 32.1777 -62.793 33.3984 -61.5723 34.8145 -61.5723 Z M 50.3418 -44.7266 C 51.8066 -44.7266 52.9785 -45.8984 52.9785 -47.2656 C 52.9785 -48.6816 51.8066 -49.8047 50.3418 -49.8047 L 34.8145 -49.8047 C 33.3984 -49.8047 32.1777 -48.6816 32.1777 -47.2656 C 32.1777 -45.8984 33.3984 -44.7266 34.8145 -44.7266 Z M 50.3418 -27.9297 C 51.8066 -27.9297 52.9785 -29.1016 52.9785 -30.4688 C 52.9785 -31.8359 51.8066 -33.0078 50.3418 -33.0078 L 34.8145 -33.0078 C 33.3984 -33.0078 32.1777 -31.8359 32.1777 -30.4688 C 32.1777 -29.1016 33.3984 -27.9297 34.8145 -27.9297 Z"/>
  </g>
  <g id="Thin-L" transform="matrix(1 0 0 1 767.409 1556)">
   <path d="M 32.7148 20.3613 L 145.361 20.3613 C 156.25 20.3613 161.963 14.4531 161.963 3.75977 L 161.963 -73.9746 C 161.963 -84.7168 156.25 -90.5762 145.361 -90.5762 L 32.7148 -90.5762 C 21.8262 -90.5762 16.0645 -84.8633 16.0645 -73.9746 L 16.0645 3.75977 C 16.0645 14.6484 21.8262 20.3613 32.7148 20.3613 Z M 32.8613 16.4062 C 24.4141 16.4062 20.0195 12.0117 20.0195 3.56445 L 20.0195 -73.7793 C 20.0195 -82.2754 24.4141 -86.6699 32.8613 -86.6699 L 61.1328 -86.6699 L 61.1328 16.4062 Z M 145.166 -86.6699 C 153.32 -86.6699 158.008 -82.2754 158.008 -73.7793 L 158.008 3.56445 C 158.008 12.0117 153.32 16.4062 145.166 16.4062 L 65.0391 16.4062 L 65.0391 -86.6699 Z M 49.1211 -63.0371 C 50.1953 -63.0371 51.0254 -63.8672 51.0254 -64.8438 C 51.0254 -65.8203 50.1953 -66.6504 49.1211 -66.6504 L 32.0312 -66.6504 C 30.957 -66.6504 30.127 -65.8203 30.127 -64.8438 C 30.127 -63.8672 30.957 -63.0371 32.0312 -63.0371 Z M 49.1211 -45.752 C 50.1953 -45.752 51.0254 -46.582 51.0254 -47.5586 C 51.0254 -48.584 50.1953 -49.3652 49.1211 -49.3652 L 32.0312 -49.3652 C 30.957 -49.3652 30.127 -48.584 30.127 -47.5586 C 30.127 -46.582 30.957 -45.752 32.0312 -45.752 Z M 49.1211 -28.5645 C 50.1953 -28.5645 51.0254 -29.3945 51.0254 -30.3711 C 51.0254 -31.3477 50.1953 -32.1777 49.1211 -32.1777 L 32.0312 -32.1777 C 30.957 -32.1777 30.127 -31.3477 30.127 -30.3711 C 30.127 -29.3945 30.957 -28.5645 32.0312 -28.5645 Z"/>
  </g>
  <g id="Ultralight-L" transform="matrix(1 0 0 1 470.99 1556)">
   <path d="M 31.9824 19.7754 L 145.459 19.7754 C 155.811 19.7754 161.377 14.0625 161.377 3.85742 L 161.377 -74.0723 C 161.377 -84.2773 155.811 -89.9902 145.459 -89.9902 L 31.9824 -89.9902 C 21.6309 -89.9902 16.0645 -84.4727 16.0645 -74.0723 L 16.0645 3.85742 C 16.0645 14.2578 21.6309 19.7754 31.9824 19.7754 Z M 32.1289 17.2363 C 23.2422 17.2363 18.6523 12.6465 18.6523 3.75977 L 18.6523 -73.9258 C 18.6523 -82.8125 23.2422 -87.4512 32.1289 -87.4512 L 60.498 -87.4512 L 60.498 17.2363 Z M 145.264 -87.4512 C 153.857 -87.4512 158.789 -82.8125 158.789 -73.9258 L 158.789 3.75977 C 158.789 12.6465 153.857 17.2363 145.264 17.2363 L 63.0371 17.2363 L 63.0371 -87.4512 Z M 48.5352 -63.7695 C 49.3652 -63.7695 50 -64.4043 50 -65.1855 C 50 -65.9668 49.3652 -66.6504 48.5352 -66.6504 L 30.6152 -66.6504 C 29.7363 -66.6504 29.1016 -65.9668 29.1016 -65.1855 C 29.1016 -64.4043 29.7363 -63.7695 30.6152 -63.7695 Z M 48.5352 -46.2891 C 49.3652 -46.2891 50 -46.9238 50 -47.7051 C 50 -48.5352 49.3652 -49.1699 48.5352 -49.1699 L 30.6152 -49.1699 C 29.7363 -49.1699 29.1016 -48.5352 29.1016 -47.7051 C 29.1016 -46.9238 29.7363 -46.2891 30.6152 -46.2891 Z M 48.5352 -28.9062 C 49.3652 -28.9062 50 -29.541 50 -30.3223 C 50 -31.1523 49.3652 -31.7871 48.5352 -31.7871 L 30.6152 -31.7871 C 29.7363 -31.7871 29.1016 -31.1523 29.1016 -30.3223 C 29.1016 -29.541 29.7363 -28.9062 30.6152 -28.9062 Z"/>
  </g>
  <g id="Black-M" transform="matrix(1 0 0 1 2861.82 1126)">
   <path d="M 31.9824 13.5742 L 111.182 13.5742 C 123.389 13.5742 130.713 6.29883 130.713 -5.95703 L 130.713 -64.4043 C 130.713 -76.6602 123.389 -83.9355 111.182 -83.9355 L 31.9824 -83.9355 C 19.7266 -83.9355 12.4512 -76.6602 12.4512 -64.4043 L 12.4512 -5.95703 C 12.4512 6.29883 19.7266 13.5742 31.9824 13.5742 Z M 34.9121 -4.73633 C 32.0801 -4.73633 30.7617 -5.81055 30.7617 -8.88672 L 30.7617 -61.4746 C 30.7617 -64.5508 32.0801 -65.6738 34.9121 -65.6738 L 59.5703 -65.6738 L 59.5703 -4.73633 Z M 108.252 -65.6738 C 111.035 -65.6738 112.402 -64.5508 112.402 -61.4746 L 112.402 -8.88672 C 112.402 -5.81055 111.035 -4.73633 108.252 -4.73633 L 75.9277 -4.73633 L 75.9277 -65.6738 Z M 49.0723 -48.9746 C 52.0996 -48.9746 54.3945 -51.2695 54.3945 -53.9551 C 54.3945 -56.6406 52.0996 -58.9844 49.0723 -58.9844 L 41.2598 -58.9844 C 38.2324 -58.9844 35.8887 -56.6406 35.8887 -53.9551 C 35.8887 -51.2695 38.2324 -48.9746 41.2598 -48.9746 Z M 49.0723 -33.6426 C 52.0996 -33.6426 54.3945 -35.9375 54.3945 -38.623 C 54.3945 -41.3086 52.0996 -43.6035 49.0723 -43.6035 L 41.2598 -43.6035 C 38.2324 -43.6035 35.8887 -41.3086 35.8887 -38.623 C 35.8887 -35.9375 38.2324 -33.6426 41.2598 -33.6426 Z M 49.0723 -18.2617 C 52.0996 -18.2617 54.3945 -20.5566 54.3945 -23.291 C 54.3945 -25.9766 52.0996 -28.2715 49.0723 -28.2715 L 41.2598 -28.2715 C 38.2324 -28.2715 35.8887 -25.9766 35.8887 -23.291 C 35.8887 -20.5566 38.2324 -18.2617 41.2598 -18.2617 Z"/>
  </g>
  <g id="Heavy-M" transform="matrix(1 0 0 1 2565.47 1126)">
   <path d="M 31.0059 12.6465 L 111.426 12.6465 C 123.193 12.6465 129.98 5.9082 129.98 -5.81055 L 129.98 -64.5508 C 129.98 -76.2695 123.193 -83.0566 111.426 -83.0566 L 31.0059 -83.0566 C 19.2383 -83.0566 12.4512 -76.3184 12.4512 -64.5508 L 12.4512 -5.81055 C 12.4512 5.9082 19.2383 12.6465 31.0059 12.6465 Z M 33.252 -3.17383 C 29.9805 -3.17383 28.2715 -4.63867 28.2715 -8.1543 L 28.2715 -62.207 C 28.2715 -65.7715 29.9805 -67.2363 33.252 -67.2363 L 57.2266 -67.2363 L 57.2266 -3.17383 Z M 109.18 -67.2363 C 112.451 -67.2363 114.16 -65.7715 114.16 -62.207 L 114.16 -8.1543 C 114.16 -4.63867 112.451 -3.17383 109.18 -3.17383 L 71.5332 -3.17383 L 71.5332 -67.2363 Z M 46.9727 -50.1953 C 49.6582 -50.1953 51.709 -52.2461 51.709 -54.6387 C 51.709 -57.0801 49.6582 -59.1309 46.9727 -59.1309 L 38.5254 -59.1309 C 35.8887 -59.1309 33.7891 -57.0801 33.7891 -54.6387 C 33.7891 -52.2461 35.8887 -50.1953 38.5254 -50.1953 Z M 46.9727 -35.498 C 49.6582 -35.498 51.709 -37.5488 51.709 -39.9414 C 51.709 -42.3828 49.6582 -44.3848 46.9727 -44.3848 L 38.5254 -44.3848 C 35.8887 -44.3848 33.7891 -42.3828 33.7891 -39.9414 C 33.7891 -37.5488 35.8887 -35.498 38.5254 -35.498 Z M 46.9727 -20.752 C 49.6582 -20.752 51.709 -22.8516 51.709 -25.2441 C 51.709 -27.6367 49.6582 -29.6875 46.9727 -29.6875 L 38.5254 -29.6875 C 35.8887 -29.6875 33.7891 -27.6367 33.7891 -25.2441 C 33.7891 -22.8516 35.8887 -20.752 38.5254 -20.752 Z"/>
  </g>
  <g id="Bold-M" transform="matrix(1 0 0 1 2269.18 1126)">
   <path d="M 29.8828 11.6699 L 111.719 11.6699 C 122.949 11.6699 129.15 5.46875 129.15 -5.66406 L 129.15 -64.6973 C 129.15 -75.8789 122.949 -82.0312 111.719 -82.0312 L 29.8828 -82.0312 C 18.6523 -82.0312 12.4512 -75.8789 12.4512 -64.6973 L 12.4512 -5.66406 C 12.4512 5.51758 18.6523 11.6699 29.8828 11.6699 Z M 31.3965 -1.41602 C 27.5879 -1.41602 25.5371 -3.27148 25.5371 -7.32422 L 25.5371 -63.0371 C 25.5371 -67.1387 27.5879 -68.9453 31.3965 -68.9453 L 54.5898 -68.9453 L 54.5898 -1.41602 Z M 110.205 -68.9453 C 114.014 -68.9453 116.064 -67.1387 116.064 -63.0371 L 116.064 -7.32422 C 116.064 -3.27148 114.014 -1.41602 110.205 -1.41602 L 66.6016 -1.41602 L 66.6016 -68.9453 Z M 44.6777 -51.5625 C 46.9238 -51.5625 48.7305 -53.3691 48.7305 -55.4199 C 48.7305 -57.5195 46.9238 -59.3262 44.6777 -59.3262 L 35.5469 -59.3262 C 33.252 -59.3262 31.4453 -57.5195 31.4453 -55.4199 C 31.4453 -53.3691 33.252 -51.5625 35.5469 -51.5625 Z M 44.6777 -37.5977 C 46.9238 -37.5977 48.7305 -39.3555 48.7305 -41.4551 C 48.7305 -43.5547 46.9238 -45.2637 44.6777 -45.2637 L 35.5469 -45.2637 C 33.252 -45.2637 31.4453 -43.5547 31.4453 -41.4551 C 31.4453 -39.3555 33.252 -37.5977 35.5469 -37.5977 Z M 44.6777 -23.584 C 46.9238 -23.584 48.7305 -25.3418 48.7305 -27.4414 C 48.7305 -29.541 46.9238 -31.2988 44.6777 -31.2988 L 35.5469 -31.2988 C 33.252 -31.2988 31.4453 -29.541 31.4453 -27.4414 C 31.4453 -25.3418 33.252 -23.584 35.5469 -23.584 Z"/>
  </g>
  <g id="Semibold-M" transform="matrix(1 0 0 1 1972.73 1126)">
   <path d="M 29.1016 10.9863 L 111.914 10.9863 C 122.803 10.9863 128.613 5.17578 128.613 -5.56641 L 128.613 -64.8438 C 128.613 -75.5859 122.803 -81.3477 111.914 -81.3477 L 29.1016 -81.3477 C 18.3105 -81.3477 12.4512 -75.5859 12.4512 -64.8438 L 12.4512 -5.56641 C 12.4512 5.22461 18.3105 10.9863 29.1016 10.9863 Z M 30.127 -0.195312 C 25.9277 -0.195312 23.6328 -2.34375 23.6328 -6.78711 L 23.6328 -63.623 C 23.6328 -68.0664 25.9277 -70.166 30.127 -70.166 L 52.7832 -70.166 L 52.7832 -0.195312 Z M 110.938 -70.166 C 115.088 -70.166 117.432 -68.0664 117.432 -63.623 L 117.432 -6.78711 C 117.432 -2.34375 115.088 -0.195312 110.938 -0.195312 L 63.2324 -0.195312 L 63.2324 -70.166 Z M 43.0664 -52.4902 C 45.0195 -52.4902 46.6797 -54.1504 46.6797 -55.957 C 46.6797 -57.8125 45.0195 -59.4238 43.0664 -59.4238 L 33.4473 -59.4238 C 31.4941 -59.4238 29.834 -57.8125 29.834 -55.957 C 29.834 -54.1504 31.4941 -52.4902 33.4473 -52.4902 Z M 43.0664 -39.0137 C 45.0195 -39.0137 46.6797 -40.625 46.6797 -42.4805 C 46.6797 -44.3359 45.0195 -45.8984 43.0664 -45.8984 L 33.4473 -45.8984 C 31.4941 -45.8984 29.834 -44.3359 29.834 -42.4805 C 29.834 -40.625 31.4941 -39.0137 33.4473 -39.0137 Z M 43.0664 -25.4883 C 45.0195 -25.4883 46.6797 -27.0996 46.6797 -28.9551 C 46.6797 -30.8105 45.0195 -32.373 43.0664 -32.373 L 33.4473 -32.373 C 31.4941 -32.373 29.834 -30.8105 29.834 -28.9551 C 29.834 -27.0996 31.4941 -25.4883 33.4473 -25.4883 Z"/>
  </g>
  <g id="Medium-M" transform="matrix(1 0 0 1 1676.24 1126)">
   <path d="M 28.5645 10.4492 L 112.109 10.4492 C 122.656 10.4492 128.174 4.98047 128.174 -5.46875 L 128.174 -64.8926 C 128.174 -75.3418 122.656 -80.8105 112.109 -80.8105 L 28.5645 -80.8105 C 17.9688 -80.8105 12.4512 -75.3906 12.4512 -64.8926 L 12.4512 -5.46875 C 12.4512 4.98047 17.9688 10.4492 28.5645 10.4492 Z M 29.1504 0.732422 C 24.6582 0.732422 22.2168 -1.61133 22.2168 -6.34766 L 22.2168 -64.0137 C 22.2168 -68.75 24.6582 -71.0938 29.1504 -71.0938 L 51.416 -71.0938 L 51.416 0.732422 Z M 111.475 -71.0938 C 115.918 -71.0938 118.408 -68.75 118.408 -64.0137 L 118.408 -6.34766 C 118.408 -1.61133 115.918 0.732422 111.475 0.732422 L 60.6934 0.732422 L 60.6934 -71.0938 Z M 41.8457 -53.2227 C 43.6035 -53.2227 45.0684 -54.7363 45.0684 -56.3965 C 45.0684 -58.0566 43.6035 -59.5215 41.8457 -59.5215 L 31.8848 -59.5215 C 30.127 -59.5215 28.6133 -58.0566 28.6133 -56.3965 C 28.6133 -54.7363 30.127 -53.2227 31.8848 -53.2227 Z M 41.8457 -40.0879 C 43.6035 -40.0879 45.0684 -41.5527 45.0684 -43.2617 C 45.0684 -44.9219 43.6035 -46.3867 41.8457 -46.3867 L 31.8848 -46.3867 C 30.127 -46.3867 28.6133 -44.9219 28.6133 -43.2617 C 28.6133 -41.5527 30.127 -40.0879 31.8848 -40.0879 Z M 41.8457 -27.002 C 43.6035 -27.002 45.0684 -28.418 45.0684 -30.127 C 45.0684 -31.7871 43.6035 -33.2031 41.8457 -33.2031 L 31.8848 -33.2031 C 30.127 -33.2031 28.6133 -31.7871 28.6133 -30.127 C 28.6133 -28.418 30.127 -27.002 31.8848 -27.002 Z"/>
  </g>
  <g id="Regular-M" transform="matrix(1 0 0 1 1379.8 1126)">
   <path d="M 27.7832 9.76562 L 112.305 9.76562 C 122.51 9.76562 127.637 4.6875 127.637 -5.37109 L 127.637 -64.9902 C 127.637 -75.0488 122.51 -80.127 112.305 -80.127 L 27.7832 -80.127 C 17.627 -80.127 12.4512 -75.0977 12.4512 -64.9902 L 12.4512 -5.37109 C 12.4512 4.73633 17.627 9.76562 27.7832 9.76562 Z M 27.9297 1.9043 C 23.0469 1.9043 20.3125 -0.683594 20.3125 -5.76172 L 20.3125 -64.5996 C 20.3125 -69.6777 23.0469 -72.2656 27.9297 -72.2656 L 49.6582 -72.2656 L 49.6582 1.9043 Z M 112.158 -72.2656 C 116.992 -72.2656 119.775 -69.6777 119.775 -64.5996 L 119.775 -5.76172 C 119.775 -0.683594 116.992 1.9043 112.158 1.9043 L 57.3242 1.9043 L 57.3242 -72.2656 Z M 40.2832 -54.1504 C 41.748 -54.1504 43.0664 -55.4688 43.0664 -56.8848 C 43.0664 -58.3496 41.748 -59.6191 40.2832 -59.6191 L 29.7852 -59.6191 C 28.3203 -59.6191 27.0508 -58.3496 27.0508 -56.8848 C 27.0508 -55.4688 28.3203 -54.1504 29.7852 -54.1504 Z M 40.2832 -41.5039 C 41.748 -41.5039 43.0664 -42.8223 43.0664 -44.2871 C 43.0664 -45.752 41.748 -46.9727 40.2832 -46.9727 L 29.7852 -46.9727 C 28.3203 -46.9727 27.0508 -45.752 27.0508 -44.2871 C 27.0508 -42.8223 28.3203 -41.5039 29.7852 -41.5039 Z M 40.2832 -28.9062 C 41.748 -28.9062 43.0664 -30.127 43.0664 -31.5918 C 43.0664 -33.0566 41.748 -34.3262 40.2832 -34.3262 L 29.7852 -34.3262 C 28.3203 -34.3262 27.0508 -33.0566 27.0508 -31.5918 C 27.0508 -30.127 28.3203 -28.9062 29.7852 -28.9062 Z"/>
  </g>
  <g id="Light-M" transform="matrix(1 0 0 1 1083.48 1126)">
   <path d="M 26.8555 9.0332 L 112.402 9.0332 C 121.973 9.0332 126.807 4.15039 126.807 -5.22461 L 126.807 -65.0879 C 126.807 -74.5117 121.973 -79.3945 112.402 -79.3945 L 26.8555 -79.3945 C 17.334 -79.3945 12.4512 -74.5605 12.4512 -65.0879 L 12.4512 -5.22461 C 12.4512 4.19922 17.334 9.0332 26.8555 9.0332 Z M 27.002 2.97852 C 21.4844 2.97852 18.5059 0.0976562 18.5059 -5.56641 L 18.5059 -64.7949 C 18.5059 -70.4102 21.4844 -73.3398 27.002 -73.3398 L 48.7793 -73.3398 L 48.7793 2.97852 Z M 112.305 -73.3398 C 117.676 -73.3398 120.801 -70.4102 120.801 -64.7949 L 120.801 -5.56641 C 120.801 0.0976562 117.676 2.97852 112.305 2.97852 L 54.6875 2.97852 L 54.6875 -73.3398 Z M 39.4531 -55.127 C 40.6738 -55.127 41.6992 -56.2012 41.6992 -57.373 C 41.6992 -58.5938 40.6738 -59.6191 39.4531 -59.6191 L 27.9297 -59.6191 C 26.709 -59.6191 25.6348 -58.5938 25.6348 -57.373 C 25.6348 -56.2012 26.709 -55.127 27.9297 -55.127 Z M 39.4531 -42.2363 C 40.6738 -42.2363 41.6992 -43.2617 41.6992 -44.4824 C 41.6992 -45.6543 40.6738 -46.6797 39.4531 -46.6797 L 27.9297 -46.6797 C 26.709 -46.6797 25.6348 -45.6543 25.6348 -44.4824 C 25.6348 -43.2617 26.709 -42.2363 27.9297 -42.2363 Z M 39.4531 -29.3457 C 40.6738 -29.3457 41.6992 -30.3711 41.6992 -31.543 C 41.6992 -32.7637 40.6738 -33.7891 39.4531 -33.7891 L 27.9297 -33.7891 C 26.709 -33.7891 25.6348 -32.7637 25.6348 -31.543 C 25.6348 -30.3711 26.709 -29.3457 27.9297 -29.3457 Z"/>
  </g>
  <g id="Thin-M" transform="matrix(1 0 0 1 787.306 1126)">
   <path d="M 25.6348 8.05664 L 112.598 8.05664 C 121.24 8.05664 125.781 3.4668 125.781 -5.0293 L 125.781 -65.2344 C 125.781 -73.7305 121.24 -78.3691 112.598 -78.3691 L 25.6348 -78.3691 C 16.9922 -78.3691 12.4512 -73.877 12.4512 -65.2344 L 12.4512 -5.0293 C 12.4512 3.56445 16.9922 8.05664 25.6348 8.05664 Z M 25.7324 4.44336 C 19.4336 4.44336 16.1133 1.12305 16.1133 -5.22461 L 16.1133 -65.0391 C 16.1133 -71.4355 19.4336 -74.7559 25.7324 -74.7559 L 47.6562 -74.7559 L 47.6562 4.44336 Z M 112.451 -74.7559 C 118.604 -74.7559 122.119 -71.4355 122.119 -65.0391 L 122.119 -5.22461 C 122.119 1.12305 118.604 4.44336 112.451 4.44336 L 51.2207 4.44336 L 51.2207 -74.7559 Z M 38.3301 -56.4453 C 39.2578 -56.4453 39.9414 -57.1777 39.9414 -58.0078 C 39.9414 -58.8867 39.2578 -59.5703 38.3301 -59.5703 L 25.4395 -59.5703 C 24.5117 -59.5703 23.7793 -58.8867 23.7793 -58.0078 C 23.7793 -57.1777 24.5117 -56.4453 25.4395 -56.4453 Z M 38.3301 -43.1641 C 39.2578 -43.1641 39.9414 -43.8965 39.9414 -44.7266 C 39.9414 -45.6055 39.2578 -46.2891 38.3301 -46.2891 L 25.4395 -46.2891 C 24.5117 -46.2891 23.7793 -45.6055 23.7793 -44.7266 C 23.7793 -43.8965 24.5117 -43.1641 25.4395 -43.1641 Z M 38.3301 -29.9316 C 39.2578 -29.9316 39.9414 -30.6152 39.9414 -31.4941 C 39.9414 -32.3242 39.2578 -33.0566 38.3301 -33.0566 L 25.4395 -33.0566 C 24.5117 -33.0566 23.7793 -32.3242 23.7793 -31.4941 C 23.7793 -30.6152 24.5117 -29.9316 25.4395 -29.9316 Z"/>
  </g>
  <g id="Ultralight-M" transform="matrix(1 0 0 1 490.863 1126)">
   <path d="M 25 7.56836 L 112.695 7.56836 C 120.898 7.56836 125.244 3.125 125.244 -4.98047 L 125.244 -65.2832 C 125.244 -73.3887 120.898 -77.832 112.695 -77.832 L 25 -77.832 C 16.7969 -77.832 12.4512 -73.4863 12.4512 -65.2832 L 12.4512 -4.98047 C 12.4512 3.22266 16.7969 7.56836 25 7.56836 Z M 25.1465 5.17578 C 18.3594 5.17578 14.8438 1.66016 14.8438 -5.07812 L 14.8438 -65.1855 C 14.8438 -71.9727 18.3594 -75.4395 25.1465 -75.4395 L 47.0703 -75.4395 L 47.0703 5.17578 Z M 112.549 -75.4395 C 119.092 -75.4395 122.852 -71.9727 122.852 -65.1855 L 122.852 -5.07812 C 122.852 1.66016 119.092 5.17578 112.549 5.17578 L 49.4629 5.17578 L 49.4629 -75.4395 Z M 37.793 -57.1289 C 38.5254 -57.1289 39.0625 -57.666 39.0625 -58.3496 C 39.0625 -59.0332 38.5254 -59.5703 37.793 -59.5703 L 24.1211 -59.5703 C 23.3887 -59.5703 22.8516 -59.0332 22.8516 -58.3496 C 22.8516 -57.666 23.3887 -57.1289 24.1211 -57.1289 Z M 37.793 -43.6523 C 38.5254 -43.6523 39.0625 -44.1895 39.0625 -44.873 C 39.0625 -45.5566 38.5254 -46.0938 37.793 -46.0938 L 24.1211 -46.0938 C 23.3887 -46.0938 22.8516 -45.5566 22.8516 -44.873 C 22.8516 -44.1895 23.3887 -43.6523 24.1211 -43.6523 Z M 37.793 -30.2246 C 38.5254 -30.2246 39.0625 -30.7617 39.0625 -31.4453 C 39.0625 -32.1289 38.5254 -32.666 37.793 -32.666 L 24.1211 -32.666 C 23.3887 -32.666 22.8516 -32.1289 22.8516 -31.4453 C 22.8516 -30.7617 23.3887 -30.2246 24.1211 -30.2246 Z"/>
  </g>
  <g id="Black-S" transform="matrix(1 0 0 1 2877.35 696)">
   <path d="M 25 2.92969 L 87.1094 2.92969 C 96.6797 2.92969 102.344 -2.73438 102.344 -12.3047 L 102.344 -58.1055 C 102.344 -67.6758 96.6797 -73.3398 87.1094 -73.3398 L 25 -73.3398 C 15.4297 -73.3398 9.76562 -67.6758 9.76562 -58.1055 L 9.76562 -12.3047 C 9.76562 -2.73438 15.4297 2.92969 25 2.92969 Z M 27.2461 -11.2305 C 25 -11.2305 23.9258 -12.1094 23.9258 -14.5508 L 23.9258 -55.8594 C 23.9258 -58.3008 25 -59.1797 27.2461 -59.1797 L 46.4844 -59.1797 L 46.4844 -11.2305 Z M 84.8633 -59.1797 C 87.1094 -59.1797 88.1836 -58.3008 88.1836 -55.8594 L 88.1836 -14.5508 C 88.1836 -12.1094 87.1094 -11.2305 84.8633 -11.2305 L 59.1797 -11.2305 L 59.1797 -59.1797 Z M 38.2812 -46.0938 C 40.625 -46.0938 42.4316 -47.8516 42.4316 -49.9512 C 42.4316 -52.0508 40.625 -53.8574 38.2812 -53.8574 L 32.1289 -53.8574 C 29.7852 -53.8574 27.9785 -52.0508 27.9785 -49.9512 C 27.9785 -47.8516 29.7852 -46.0938 32.1289 -46.0938 Z M 38.2812 -34.1309 C 40.625 -34.1309 42.4316 -35.8887 42.4316 -37.9883 C 42.4316 -40.0879 40.625 -41.8457 38.2812 -41.8457 L 32.1289 -41.8457 C 29.7852 -41.8457 27.9785 -40.0879 27.9785 -37.9883 C 27.9785 -35.8887 29.7852 -34.1309 32.1289 -34.1309 Z M 38.2812 -22.1191 C 40.625 -22.1191 42.4316 -23.9258 42.4316 -26.0254 C 42.4316 -28.125 40.625 -29.8828 38.2812 -29.8828 L 32.1289 -29.8828 C 29.7852 -29.8828 27.9785 -28.125 27.9785 -26.0254 C 27.9785 -23.9258 29.7852 -22.1191 32.1289 -22.1191 Z"/>
  </g>
  <g id="Heavy-S" transform="matrix(1 0 0 1 2580.88 696)">
   <path d="M 24.3652 2.34375 L 87.3047 2.34375 C 96.582 2.34375 101.855 -2.97852 101.855 -12.207 L 101.855 -58.2031 C 101.855 -67.4316 96.582 -72.7539 87.3047 -72.7539 L 24.3652 -72.7539 C 15.0879 -72.7539 9.76562 -67.4316 9.76562 -58.2031 L 9.76562 -12.207 C 9.76562 -2.97852 15.0879 2.34375 24.3652 2.34375 Z M 26.0742 -10.1562 C 23.5352 -10.1562 22.2656 -11.2793 22.2656 -14.0137 L 22.2656 -56.3965 C 22.2656 -59.1309 23.5352 -60.2539 26.0742 -60.2539 L 44.7754 -60.2539 L 44.7754 -10.1562 Z M 85.5469 -60.2539 C 88.0859 -60.2539 89.4043 -59.1309 89.4043 -56.3965 L 89.4043 -14.0137 C 89.4043 -11.2793 88.0859 -10.1562 85.5469 -10.1562 L 56.1035 -10.1562 L 56.1035 -60.2539 Z M 36.7676 -46.9238 C 38.8672 -46.9238 40.5273 -48.5352 40.5273 -50.4395 C 40.5273 -52.3438 38.8672 -53.9551 36.7676 -53.9551 L 30.2734 -53.9551 C 28.1738 -53.9551 26.5137 -52.3438 26.5137 -50.4395 C 26.5137 -48.5352 28.1738 -46.9238 30.2734 -46.9238 Z M 36.7676 -35.4492 C 38.8672 -35.4492 40.5273 -37.0605 40.5273 -38.9648 C 40.5273 -40.8691 38.8672 -42.4805 36.7676 -42.4805 L 30.2734 -42.4805 C 28.1738 -42.4805 26.5137 -40.8691 26.5137 -38.9648 C 26.5137 -37.0605 28.1738 -35.4492 30.2734 -35.4492 Z M 36.7676 -23.9746 C 38.8672 -23.9746 40.5273 -25.6348 40.5273 -27.5391 C 40.5273 -29.4434 38.8672 -31.0547 36.7676 -31.0547 L 30.2734 -31.0547 C 28.1738 -31.0547 26.5137 -29.4434 26.5137 -27.5391 C 26.5137 -25.6348 28.1738 -23.9746 30.2734 -23.9746 Z"/>
  </g>
  <g id="Bold-S" transform="matrix(1 0 0 1 2284.41 696)">
   <path d="M 23.6328 1.66016 L 87.5 1.66016 C 96.4844 1.66016 101.367 -3.22266 101.367 -12.1094 L 101.367 -58.3008 C 101.367 -67.1875 96.4844 -72.0703 87.5 -72.0703 L 23.6328 -72.0703 C 14.6973 -72.0703 9.76562 -67.1875 9.76562 -58.3008 L 9.76562 -12.1094 C 9.76562 -3.22266 14.6973 1.66016 23.6328 1.66016 Z M 24.8047 -8.93555 C 21.9238 -8.93555 20.3613 -10.3516 20.3613 -13.4277 L 20.3613 -56.9824 C 20.3613 -60.0586 21.9238 -61.4746 24.8047 -61.4746 L 42.9199 -61.4746 L 42.9199 -8.93555 Z M 86.3281 -61.4746 C 89.209 -61.4746 90.7715 -60.0586 90.7715 -56.9824 L 90.7715 -13.4277 C 90.7715 -10.3516 89.209 -8.93555 86.3281 -8.93555 L 52.6855 -8.93555 L 52.6855 -61.4746 Z M 35.1074 -47.8516 C 36.9141 -47.8516 38.3789 -49.3164 38.3789 -50.9766 C 38.3789 -52.6367 36.9141 -54.1016 35.1074 -54.1016 L 28.2227 -54.1016 C 26.3672 -54.1016 24.9023 -52.6367 24.9023 -50.9766 C 24.9023 -49.3164 26.3672 -47.8516 28.2227 -47.8516 Z M 35.1074 -36.9629 C 36.9141 -36.9629 38.3789 -38.4277 38.3789 -40.0879 C 38.3789 -41.7969 36.9141 -43.2129 35.1074 -43.2129 L 28.2227 -43.2129 C 26.3672 -43.2129 24.9023 -41.7969 24.9023 -40.0879 C 24.9023 -38.4277 26.3672 -36.9629 28.2227 -36.9629 Z M 35.1074 -26.0742 C 36.9141 -26.0742 38.3789 -27.5391 38.3789 -29.1992 C 38.3789 -30.9082 36.9141 -32.3242 35.1074 -32.3242 L 28.2227 -32.3242 C 26.3672 -32.3242 24.9023 -30.9082 24.9023 -29.1992 C 24.9023 -27.5391 26.3672 -26.0742 28.2227 -26.0742 Z"/>
  </g>
  <g id="Semibold-S" transform="matrix(1 0 0 1 1987.9 696)">
   <path d="M 23.0957 1.17188 L 87.6465 1.17188 C 96.3867 1.17188 100.977 -3.36914 100.977 -12.0117 L 100.977 -58.3984 C 100.977 -67.041 96.3867 -71.582 87.6465 -71.582 L 23.0957 -71.582 C 14.4043 -71.582 9.76562 -67.041 9.76562 -58.3984 L 9.76562 -12.0117 C 9.76562 -3.36914 14.4043 1.17188 23.0957 1.17188 Z M 23.877 -8.10547 C 20.752 -8.10547 19.0918 -9.7168 19.0918 -12.9883 L 19.0918 -57.4219 C 19.0918 -60.6934 20.752 -62.3047 23.877 -62.3047 L 41.6016 -62.3047 L 41.6016 -8.10547 Z M 86.8652 -62.3047 C 89.9902 -62.3047 91.6992 -60.6934 91.6992 -57.4219 L 91.6992 -12.9883 C 91.6992 -9.7168 89.9902 -8.10547 86.8652 -8.10547 L 50.293 -8.10547 L 50.293 -62.3047 Z M 33.9844 -48.4863 C 35.5957 -48.4863 36.9141 -49.8047 36.9141 -51.3184 C 36.9141 -52.8809 35.5957 -54.1992 33.9844 -54.1992 L 26.7578 -54.1992 C 25.1465 -54.1992 23.7793 -52.8809 23.7793 -51.3184 C 23.7793 -49.8047 25.1465 -48.4863 26.7578 -48.4863 Z M 33.9844 -37.9883 C 35.5957 -37.9883 36.9141 -39.3555 36.9141 -40.8691 C 36.9141 -42.4316 35.5957 -43.7012 33.9844 -43.7012 L 26.7578 -43.7012 C 25.1465 -43.7012 23.7793 -42.4316 23.7793 -40.8691 C 23.7793 -39.3555 25.1465 -37.9883 26.7578 -37.9883 Z M 33.9844 -27.5391 C 35.5957 -27.5391 36.9141 -28.8574 36.9141 -30.3711 C 36.9141 -31.9336 35.5957 -33.2031 33.9844 -33.2031 L 26.7578 -33.2031 C 25.1465 -33.2031 23.7793 -31.9336 23.7793 -30.3711 C 23.7793 -28.8574 25.1465 -27.5391 26.7578 -27.5391 Z"/>
  </g>
  <g id="Medium-S" transform="matrix(1 0 0 1 1691.31 696)">
   <path d="M 22.7051 0.830078 L 87.7441 0.830078 C 96.3379 0.830078 100.732 -3.51562 100.732 -11.9629 L 100.732 -58.4473 C 100.732 -66.8945 96.3379 -71.2402 87.7441 -71.2402 L 22.7051 -71.2402 C 14.209 -71.2402 9.76562 -66.8945 9.76562 -58.4473 L 9.76562 -11.9629 C 9.76562 -3.51562 14.209 0.830078 22.7051 0.830078 Z M 23.1934 -7.4707 C 19.9219 -7.4707 18.0664 -9.22852 18.0664 -12.6953 L 18.0664 -57.7148 C 18.0664 -61.1816 19.9219 -62.9395 23.1934 -62.9395 L 40.625 -62.9395 L 40.625 -7.4707 Z M 87.3047 -62.9395 C 90.5762 -62.9395 92.3828 -61.1816 92.3828 -57.7148 L 92.3828 -12.6953 C 92.3828 -9.22852 90.5762 -7.4707 87.3047 -7.4707 L 48.5352 -7.4707 L 48.5352 -62.9395 Z M 33.1055 -48.9258 C 34.5703 -48.9258 35.8398 -50.2441 35.8398 -51.6113 C 35.8398 -53.0273 34.5703 -54.248 33.1055 -54.248 L 25.6836 -54.248 C 24.2188 -54.248 22.9492 -53.0273 22.9492 -51.6113 C 22.9492 -50.2441 24.2188 -48.9258 25.6836 -48.9258 Z M 33.1055 -38.7695 C 34.5703 -38.7695 35.8398 -40.0391 35.8398 -41.4551 C 35.8398 -42.8711 34.5703 -44.0918 33.1055 -44.0918 L 25.6836 -44.0918 C 24.2188 -44.0918 22.9492 -42.8711 22.9492 -41.4551 C 22.9492 -40.0391 24.2188 -38.7695 25.6836 -38.7695 Z M 33.1055 -28.6133 C 34.5703 -28.6133 35.8398 -29.834 35.8398 -31.25 C 35.8398 -32.666 34.5703 -33.8867 33.1055 -33.8867 L 25.6836 -33.8867 C 24.2188 -33.8867 22.9492 -32.666 22.9492 -31.25 C 22.9492 -29.834 24.2188 -28.6133 25.6836 -28.6133 Z"/>
  </g>
  <g id="Regular-S" transform="matrix(1 0 0 1 1394.79 696)">
   <path d="M 22.2168 0.390625 L 87.8906 0.390625 C 96.2402 0.390625 100.342 -3.71094 100.342 -11.9141 L 100.342 -58.4961 C 100.342 -66.6992 96.2402 -70.8008 87.8906 -70.8008 L 22.2168 -70.8008 C 13.916 -70.8008 9.76562 -66.6992 9.76562 -58.4961 L 9.76562 -11.9141 C 9.76562 -3.71094 13.916 0.390625 22.2168 0.390625 Z M 22.3145 -6.68945 C 18.7988 -6.68945 16.7969 -8.54492 16.7969 -12.2559 L 16.7969 -58.1543 C 16.7969 -61.8164 18.7988 -63.7207 22.3145 -63.7207 L 39.3066 -63.7207 L 39.3066 -6.68945 Z M 87.793 -63.7207 C 91.3086 -63.7207 93.3105 -61.8164 93.3105 -58.1543 L 93.3105 -12.2559 C 93.3105 -8.54492 91.3086 -6.68945 87.793 -6.68945 L 46.1914 -6.68945 L 46.1914 -63.7207 Z M 31.9336 -49.5605 C 33.252 -49.5605 34.375 -50.7324 34.375 -52.002 C 34.375 -53.2715 33.252 -54.3457 31.9336 -54.3457 L 24.2676 -54.3457 C 22.998 -54.3457 21.875 -53.2715 21.875 -52.002 C 21.875 -50.7324 22.998 -49.5605 24.2676 -49.5605 Z M 31.9336 -39.7949 C 33.252 -39.7949 34.375 -40.918 34.375 -42.2363 C 34.375 -43.5059 33.252 -44.5801 31.9336 -44.5801 L 24.2676 -44.5801 C 22.998 -44.5801 21.875 -43.5059 21.875 -42.2363 C 21.875 -40.918 22.998 -39.7949 24.2676 -39.7949 Z M 31.9336 -30.0293 C 33.252 -30.0293 34.375 -31.1523 34.375 -32.4219 C 34.375 -33.6914 33.252 -34.7656 31.9336 -34.7656 L 24.2676 -34.7656 C 22.998 -34.7656 21.875 -33.6914 21.875 -32.4219 C 21.875 -31.1523 22.998 -30.0293 24.2676 -30.0293 Z"/>
  </g>
  <g id="Light-S" transform="matrix(1 0 0 1 1098.42 696)">
   <path d="M 21.3867 -0.292969 L 88.0371 -0.292969 C 95.752 -0.292969 99.6582 -4.15039 99.6582 -11.7676 L 99.6582 -58.5938 C 99.6582 -66.2109 95.752 -70.1172 88.0371 -70.1172 L 21.3867 -70.1172 C 13.6719 -70.1172 9.76562 -66.2598 9.76562 -58.5938 L 9.76562 -11.7676 C 9.76562 -4.15039 13.6719 -0.292969 21.3867 -0.292969 Z M 21.4844 -5.71289 C 17.4316 -5.71289 15.1855 -7.86133 15.1855 -12.0605 L 15.1855 -58.3008 C 15.1855 -62.5 17.4316 -64.6973 21.4844 -64.6973 L 38.5742 -64.6973 L 38.5742 -5.71289 Z M 87.9395 -64.6973 C 91.9434 -64.6973 94.2383 -62.5 94.2383 -58.3008 L 94.2383 -12.0605 C 94.2383 -7.86133 91.9434 -5.71289 87.9395 -5.71289 L 43.8477 -5.71289 L 43.8477 -64.6973 Z M 31.2012 -50.4395 C 32.2754 -50.4395 33.2031 -51.416 33.2031 -52.3926 C 33.2031 -53.4668 32.2754 -54.3457 31.2012 -54.3457 L 22.6074 -54.3457 C 21.5332 -54.3457 20.6055 -53.4668 20.6055 -52.3926 C 20.6055 -51.416 21.5332 -50.4395 22.6074 -50.4395 Z M 31.2012 -40.4297 C 32.2754 -40.4297 33.2031 -41.3574 33.2031 -42.3828 C 33.2031 -43.457 32.2754 -44.3359 31.2012 -44.3359 L 22.6074 -44.3359 C 21.5332 -44.3359 20.6055 -43.457 20.6055 -42.3828 C 20.6055 -41.3574 21.5332 -40.4297 22.6074 -40.4297 Z M 31.2012 -30.4688 C 32.2754 -30.4688 33.2031 -31.3477 33.2031 -32.373 C 33.2031 -33.3984 32.2754 -34.2773 31.2012 -34.2773 L 22.6074 -34.2773 C 21.5332 -34.2773 20.6055 -33.3984 20.6055 -32.373 C 20.6055 -31.3477 21.5332 -30.4688 22.6074 -30.4688 Z"/>
  </g>
  <g id="Thin-S" transform="matrix(1 0 0 1 802.174 696)">
   <path d="M 20.3125 -1.12305 L 88.1836 -1.12305 C 95.1172 -1.12305 98.7305 -4.78516 98.7305 -11.6211 L 98.7305 -58.6914 C 98.7305 -65.5762 95.1172 -69.2383 88.1836 -69.2383 L 20.3125 -69.2383 C 13.3789 -69.2383 9.76562 -65.625 9.76562 -58.6914 L 9.76562 -11.6211 C 9.76562 -4.6875 13.3789 -1.12305 20.3125 -1.12305 Z M 20.4102 -4.44336 C 15.625 -4.44336 13.0859 -6.93359 13.0859 -11.8164 L 13.0859 -58.5449 C 13.0859 -63.3789 15.625 -65.918 20.4102 -65.918 L 37.5488 -65.918 L 37.5488 -4.44336 Z M 88.0859 -65.918 C 92.7246 -65.918 95.4102 -63.3789 95.4102 -58.5449 L 95.4102 -11.8164 C 95.4102 -6.93359 92.7246 -4.44336 88.0859 -4.44336 L 40.8203 -4.44336 L 40.8203 -65.918 Z M 30.2734 -51.6113 C 31.0059 -51.6113 31.6406 -52.2461 31.6406 -52.9785 C 31.6406 -53.7109 31.0059 -54.2969 30.2734 -54.2969 L 20.4102 -54.2969 C 19.6289 -54.2969 18.9941 -53.7109 18.9941 -52.9785 C 18.9941 -52.2461 19.6289 -51.6113 20.4102 -51.6113 Z M 30.2734 -41.2598 C 31.0059 -41.2598 31.6406 -41.8945 31.6406 -42.627 C 31.6406 -43.3594 31.0059 -43.9941 30.2734 -43.9941 L 20.4102 -43.9941 C 19.6289 -43.9941 18.9941 -43.3594 18.9941 -42.627 C 18.9941 -41.8945 19.6289 -41.2598 20.4102 -41.2598 Z M 30.2734 -30.957 C 31.0059 -30.957 31.6406 -31.5918 31.6406 -32.3242 C 31.6406 -33.0566 31.0059 -33.6426 30.2734 -33.6426 L 20.4102 -33.6426 C 19.6289 -33.6426 18.9941 -33.0566 18.9941 -32.3242 C 18.9941 -31.5918 19.6289 -30.957 20.4102 -30.957 Z"/>
  </g>
  <g id="Ultralight-S" transform="matrix(1 0 0 1 505.707 696)">
   <path d="M 19.7754 -1.5625 L 88.2812 -1.5625 C 94.8242 -1.5625 98.2422 -5.12695 98.2422 -11.5234 L 98.2422 -58.7891 C 98.2422 -65.2344 94.8242 -68.75 88.2812 -68.75 L 19.7754 -68.75 C 13.2324 -68.75 9.76562 -65.2832 9.76562 -58.7891 L 9.76562 -11.5234 C 9.76562 -5.0293 13.2324 -1.5625 19.7754 -1.5625 Z M 19.873 -3.75977 C 14.6484 -3.75977 11.9629 -6.44531 11.9629 -11.6699 L 11.9629 -58.6426 C 11.9629 -63.8672 14.6484 -66.5527 19.873 -66.5527 L 37.0117 -66.5527 L 37.0117 -3.75977 Z M 88.1836 -66.5527 C 93.1641 -66.5527 96.0449 -63.8672 96.0449 -58.6426 L 96.0449 -11.6699 C 96.0449 -6.44531 93.1641 -3.75977 88.1836 -3.75977 L 39.209 -3.75977 L 39.209 -66.5527 Z M 29.7363 -52.1973 C 30.3711 -52.1973 30.8594 -52.6855 30.8594 -53.2715 C 30.8594 -53.8086 30.3711 -54.2969 29.7363 -54.2969 L 19.2383 -54.2969 C 18.6523 -54.2969 18.1641 -53.8086 18.1641 -53.2715 C 18.1641 -52.6855 18.6523 -52.1973 19.2383 -52.1973 Z M 29.7363 -41.6992 C 30.3711 -41.6992 30.8594 -42.1875 30.8594 -42.7246 C 30.8594 -43.3105 30.3711 -43.7988 29.7363 -43.7988 L 19.2383 -43.7988 C 18.6523 -43.7988 18.1641 -43.3105 18.1641 -42.7246 C 18.1641 -42.1875 18.6523 -41.6992 19.2383 -41.6992 Z M 29.7363 -31.25 C 30.3711 -31.25 30.8594 -31.6895 30.8594 -32.2754 C 30.8594 -32.8613 30.3711 -33.3496 29.7363 -33.3496 L 19.2383 -33.3496 C 18.6523 -33.3496 18.1641 -32.8613 18.1641 -32.2754 C 18.1641 -31.6895 18.6523 -31.25 19.2383 -31.25 Z"/>
  </g>
 </g>
</svg>
