<?xml version="1.0" encoding="UTF-8" standalone="no"?>
<!DOCTYPE svg PUBLIC "-//W3C//DTD SVG 1.1//EN" "http://www.w3.org/Graphics/SVG/1.1/DTD/svg11.dtd">
<svg width="100%" height="100%" viewBox="0 0 19 15" version="1.1" xmlns="http://www.w3.org/2000/svg" xmlns:xlink="http://www.w3.org/1999/xlink" xml:space="preserve" xmlns:serif="http://www.serif.com/" style="fill-rule:evenodd;clip-rule:evenodd;stroke-linejoin:round;stroke-miterlimit:2;">
    <g transform="matrix(0.171954,0,0,0.171954,-8.09303,-0.372304)">
        <g>
            <path d="M129.274,60.898C126.298,51.435 116.213,46.184 106.751,49.16C97.289,52.136 92.027,62.22 95.013,71.683C95.023,71.722 95.042,71.77 95.052,71.809L86.533,71.809C84.909,71.809 83.469,70.749 83.003,69.193L75.942,46.028L77.148,45.386C93.875,38.365 111.769,50.9 124.227,38.861C124.256,38.832 124.285,38.803 124.305,38.783C125.851,37.383 127.387,35.953 131.948,38.803C136.85,41.876 147.674,49.899 152.585,63.611C152.585,63.611 155.561,62.551 154.734,58.914C153.907,55.267 147.878,44.764 135.547,35.448C133.29,33.736 131.258,32.316 129.566,31.178C132.026,20.636 119.228,7.916 106.731,13.907C97.765,5.475 87.768,2.033 78.568,2.169C54.207,2.509 35.418,27.891 55.627,52.106C55.637,52.116 55.646,52.126 55.666,52.145C55.977,52.515 56.298,52.884 56.619,53.254C57.932,54.829 58.797,56.22 59.546,58.671L65.566,78.432L63.436,78.432C61.472,78.432 59.877,80.027 59.877,81.991L67.968,81.991L81.563,88.419C82.4,86.64 81.641,84.52 79.871,83.683L76.302,82.001L86.552,82.001C86.552,80.036 84.957,78.442 82.993,78.442L73.706,78.442C72.081,78.442 70.642,77.382 70.175,75.826L65.4,60.139C64.214,56.016 66.947,53.322 69.514,53.001C71.858,52.709 73.034,54.226 74.143,57.883L78.383,71.799L76.253,71.799C74.289,71.799 72.694,73.394 72.694,75.359L80.785,75.359L94.381,81.787C95.217,80.007 94.459,77.887 92.689,77.051L89.12,75.368L96.647,75.368C100.78,82.439 109.396,85.988 117.536,83.421C126.998,80.445 132.25,70.36 129.274,60.898ZM115.601,20.51C118.586,20.51 120.998,22.922 120.998,25.907C120.998,26.86 120.745,27.755 120.317,28.533C120.278,26.666 118.752,25.158 116.865,25.158C114.959,25.158 113.413,26.705 113.413,28.611C113.413,29.651 113.87,30.575 114.589,31.207C112.09,30.731 110.203,28.543 110.203,25.907C110.203,22.931 112.615,20.51 115.601,20.51Z" style="fill:url(#_Linear1);fill-rule:nonzero;"/>
        </g>
    </g>
    <defs>
        <linearGradient id="_Linear1" x1="0" y1="0" x2="1" y2="0" gradientUnits="userSpaceOnUse" gradientTransform="matrix(5.28153e-15,-86.2539,86.2539,5.28153e-15,82,88.419)"><stop offset="0" style="stop-color:black;stop-opacity:1"/><stop offset="1" style="stop-color:rgb(77,77,77);stop-opacity:1"/></linearGradient>
    </defs>
</svg>
