<?xml version="1.0" encoding="UTF-8" standalone="no"?>
<!-- Created with Inkscape (http://www.inkscape.org/) -->
<svg xmlns:dc="http://purl.org/dc/elements/1.1/" xmlns:cc="http://creativecommons.org/ns#" xmlns:rdf="http://www.w3.org/1999/02/22-rdf-syntax-ns#" xmlns:svg="http://www.w3.org/2000/svg" xmlns="http://www.w3.org/2000/svg" xmlns:sodipodi="http://sodipodi.sourceforge.net/DTD/sodipodi-0.dtd" xmlns:inkscape="http://www.inkscape.org/namespaces/inkscape" width="4606.084" height="1000.005" id="svg2" version="1.0" inkscape:version="0.46" sodipodi:docname="Kiwix_logo_beta_1.svg" inkscape:output_extension="org.inkscape.output.svg.inkscape" sodipodi:version="0.32">
  <defs id="defs4">
    <inkscape:perspective sodipodi:type="inkscape:persp3d" inkscape:vp_x="0 : 526.18109 : 1" inkscape:vp_y="0 : 1000 : 0" inkscape:vp_z="744.09448 : 526.18109 : 1" inkscape:persp3d-origin="372.04724 : 350.78739 : 1" id="perspective10"/>
    <inkscape:perspective id="perspective3678" inkscape:persp3d-origin="0.5 : 0.33333333 : 1" inkscape:vp_z="1 : 0.5 : 1" inkscape:vp_y="0 : 1000 : 0" inkscape:vp_x="0 : 0.5 : 1" sodipodi:type="inkscape:persp3d"/>
    <inkscape:perspective id="perspective3724" inkscape:persp3d-origin="0.5 : 0.33333333 : 1" inkscape:vp_z="1 : 0.5 : 1" inkscape:vp_y="0 : 1000 : 0" inkscape:vp_x="0 : 0.5 : 1" sodipodi:type="inkscape:persp3d"/>
    <inkscape:perspective id="perspective3756" inkscape:persp3d-origin="0.5 : 0.33333333 : 1" inkscape:vp_z="1 : 0.5 : 1" inkscape:vp_y="0 : 1000 : 0" inkscape:vp_x="0 : 0.5 : 1" sodipodi:type="inkscape:persp3d"/>
    <inkscape:perspective id="perspective3814" inkscape:persp3d-origin="0.5 : 0.33333333 : 1" inkscape:vp_z="1 : 0.5 : 1" inkscape:vp_y="0 : 1000 : 0" inkscape:vp_x="0 : 0.5 : 1" sodipodi:type="inkscape:persp3d"/>
    <inkscape:perspective id="perspective3836" inkscape:persp3d-origin="0.5 : 0.33333333 : 1" inkscape:vp_z="1 : 0.5 : 1" inkscape:vp_y="0 : 1000 : 0" inkscape:vp_x="0 : 0.5 : 1" sodipodi:type="inkscape:persp3d"/>
    <inkscape:perspective id="perspective3858" inkscape:persp3d-origin="0.5 : 0.33333333 : 1" inkscape:vp_z="1 : 0.5 : 1" inkscape:vp_y="0 : 1000 : 0" inkscape:vp_x="0 : 0.5 : 1" sodipodi:type="inkscape:persp3d"/>
    <inkscape:perspective id="perspective3917" inkscape:persp3d-origin="0.5 : 0.33333333 : 1" inkscape:vp_z="1 : 0.5 : 1" inkscape:vp_y="0 : 1000 : 0" inkscape:vp_x="0 : 0.5 : 1" sodipodi:type="inkscape:persp3d"/>
    <inkscape:perspective id="perspective3917-8" inkscape:persp3d-origin="0.5 : 0.33333333 : 1" inkscape:vp_z="1 : 0.5 : 1" inkscape:vp_y="0 : 1000 : 0" inkscape:vp_x="0 : 0.5 : 1" sodipodi:type="inkscape:persp3d"/>
    <inkscape:perspective id="perspective4051" inkscape:persp3d-origin="0.5 : 0.33333333 : 1" inkscape:vp_z="1 : 0.5 : 1" inkscape:vp_y="0 : 1000 : 0" inkscape:vp_x="0 : 0.5 : 1" sodipodi:type="inkscape:persp3d"/>
    <inkscape:perspective id="perspective4074" inkscape:persp3d-origin="0.5 : 0.33333333 : 1" inkscape:vp_z="1 : 0.5 : 1" inkscape:vp_y="0 : 1000 : 0" inkscape:vp_x="0 : 0.5 : 1" sodipodi:type="inkscape:persp3d"/>
    <inkscape:perspective id="perspective4096" inkscape:persp3d-origin="0.5 : 0.33333333 : 1" inkscape:vp_z="1 : 0.5 : 1" inkscape:vp_y="0 : 1000 : 0" inkscape:vp_x="0 : 0.5 : 1" sodipodi:type="inkscape:persp3d"/>
    <inkscape:perspective id="perspective4120" inkscape:persp3d-origin="0.5 : 0.33333333 : 1" inkscape:vp_z="1 : 0.5 : 1" inkscape:vp_y="0 : 1000 : 0" inkscape:vp_x="0 : 0.5 : 1" sodipodi:type="inkscape:persp3d"/>
    <inkscape:perspective id="perspective4142" inkscape:persp3d-origin="0.5 : 0.33333333 : 1" inkscape:vp_z="1 : 0.5 : 1" inkscape:vp_y="0 : 1000 : 0" inkscape:vp_x="0 : 0.5 : 1" sodipodi:type="inkscape:persp3d"/>
    <inkscape:perspective id="perspective4171" inkscape:persp3d-origin="0.5 : 0.33333333 : 1" inkscape:vp_z="1 : 0.5 : 1" inkscape:vp_y="0 : 1000 : 0" inkscape:vp_x="0 : 0.5 : 1" sodipodi:type="inkscape:persp3d"/>
    <inkscape:perspective id="perspective4197" inkscape:persp3d-origin="0.5 : 0.33333333 : 1" inkscape:vp_z="1 : 0.5 : 1" inkscape:vp_y="0 : 1000 : 0" inkscape:vp_x="0 : 0.5 : 1" sodipodi:type="inkscape:persp3d"/>
    <inkscape:perspective id="perspective4197-7" inkscape:persp3d-origin="0.5 : 0.33333333 : 1" inkscape:vp_z="1 : 0.5 : 1" inkscape:vp_y="0 : 1000 : 0" inkscape:vp_x="0 : 0.5 : 1" sodipodi:type="inkscape:persp3d"/>
    <inkscape:perspective id="perspective4244" inkscape:persp3d-origin="0.5 : 0.33333333 : 1" inkscape:vp_z="1 : 0.5 : 1" inkscape:vp_y="0 : 1000 : 0" inkscape:vp_x="0 : 0.5 : 1" sodipodi:type="inkscape:persp3d"/>
    <inkscape:perspective id="perspective4281" inkscape:persp3d-origin="0.5 : 0.33333333 : 1" inkscape:vp_z="1 : 0.5 : 1" inkscape:vp_y="0 : 1000 : 0" inkscape:vp_x="0 : 0.5 : 1" sodipodi:type="inkscape:persp3d"/>
    <inkscape:perspective id="perspective4320" inkscape:persp3d-origin="0.5 : 0.33333333 : 1" inkscape:vp_z="1 : 0.5 : 1" inkscape:vp_y="0 : 1000 : 0" inkscape:vp_x="0 : 0.5 : 1" sodipodi:type="inkscape:persp3d"/>
    <inkscape:perspective id="perspective4344" inkscape:persp3d-origin="0.5 : 0.33333333 : 1" inkscape:vp_z="1 : 0.5 : 1" inkscape:vp_y="0 : 1000 : 0" inkscape:vp_x="0 : 0.5 : 1" sodipodi:type="inkscape:persp3d"/>
    <inkscape:perspective id="perspective4383" inkscape:persp3d-origin="0.5 : 0.33333333 : 1" inkscape:vp_z="1 : 0.5 : 1" inkscape:vp_y="0 : 1000 : 0" inkscape:vp_x="0 : 0.5 : 1" sodipodi:type="inkscape:persp3d"/>
    <inkscape:perspective id="perspective2435" inkscape:persp3d-origin="372.04724 : 350.78739 : 1" inkscape:vp_z="744.09448 : 526.18109 : 1" inkscape:vp_y="0 : 1000 : 0" inkscape:vp_x="0 : 526.18109 : 1" sodipodi:type="inkscape:persp3d"/>
  </defs>
  <sodipodi:namedview id="base" pagecolor="#ffffff" bordercolor="#666666" borderopacity="1.0" inkscape:pageopacity="0.0" inkscape:pageshadow="2" inkscape:zoom="0.24748737" inkscape:cx="1855.2436" inkscape:cy="270.039" inkscape:document-units="px" inkscape:current-layer="g3209" showgrid="false" inkscape:window-width="1280" inkscape:window-height="949" inkscape:window-x="0" inkscape:window-y="25" inkscape:window-maximized="1"/>
  <metadata id="metadata7">
    <rdf:RDF>
      <cc:Work rdf:about="">
        <dc:format>image/svg+xml</dc:format>
        <dc:type rdf:resource="http://purl.org/dc/dcmitype/StillImage"/>
        <dc:title/>
      </cc:Work>
    </rdf:RDF>
  </metadata>
  <g inkscape:label="Capa 1" inkscape:groupmode="layer" id="layer1" transform="translate(1099.26, 18.9443)">
    <g id="g3885" style="fill: rgb(128, 128, 128); stroke: none;" transform="translate(411.429, 45.7143)"/>
    <g id="g3209">
      <path id="path3204" d="M -56.135091,729.13875 C -56.135091,831.15766 -138.8383,913.86027 -240.85661,913.86027 C -342.87593,913.86027 -425.57813,831.15766 -425.57813,729.13875 C -425.57813,627.11953 -342.87593,544.41723 -240.85661,544.41723 C -138.8383,544.41723 -56.135091,627.11953 -56.135091,729.13875 z" style="fill: rgb(0, 0, 0); fill-opacity: 1; stroke: none;"/>
      <path sodipodi:nodetypes="cccccccccccccccccccccccccccc" id="path3202" d="M -727.3226,67.97357 C -988.86537,71.746416 -1188.1222,356.47774 -932.65247,614.9626 L -864.56214,792.39237 C -853.25527,832.95124 -891.60648,922.20661 -874.63003,947.12767 C -855.06983,908.85877 -850.1459,854.1459 -824.29139,847.83912 C -778.82138,879.62514 -711.55385,890.40822 -673.53929,931.39628 C -659.3349,891.65962 -716.9489,871.36675 -765.2086,848.61285 C -720.10721,856.06284 -688.91099,831.87181 -655.5224,870.79154 C -650.60406,851.10248 -656.81258,836.04719 -669.82806,823.85534 L -690.22847,796.26073 C -652.51542,816.07857 -558.6583,815.95558 -537.09287,850.67602 C -528.75795,784.97179 -607.68367,807.41188 -644.92571,787.75038 C -620.75945,790.71603 -596.75248,778.8165 -572.86043,782.07671 C -579.26236,763.64604 -590.25954,755.67306 -606.50955,757.06115 C -734.63812,787.28833 -743.65796,573.08258 -741.89563,512.32159 C -569.89781,440.10548 -396.20024,569.65213 -257.84244,445.26974 C -212.5431,378.29203 -25.56153,553.21981 32.002416,701.35654 C 118.073,665.33644 -127.468,430.05902 -198.76305,366.35479 C -161.52103,268.38131 -306.63458,125.75948 -437.74057,188.66706 C -529.99124,101.97037 -632.72141,66.609017 -727.3226,67.97357 z M -796.73701,597.426 C -784.19368,597.15742 -774.04524,603.92766 -772.09747,617.79958 L -744.278,749.32452 C -759.26744,753.5943 -765.79224,768.44042 -762.82393,795.22936 C -756.47433,787.81181 -753.85872,775.14141 -739.24588,779.23982 L -704.80148,823.0816 C -821.94086,832.1477 -830.96296,766.64119 -851.31502,658.28859 C -845.11389,618.0695 -817.64143,597.87365 -796.73701,597.426 z" style="fill: rgb(0, 0, 0); fill-opacity: 1; stroke: none;"/>
      <path transform="matrix(3.42699, 0, 0, 3.81919, -1883.42, 11.6407)" d="M 463.91255,78.701393 A 15.404826,14.520943 0 1 1 433.10289,78.701393 A 15.404826,14.520943 0 1 1 463.91255,78.701393 z" sodipodi:ry="14.520943" sodipodi:rx="15.404826" sodipodi:cy="78.701393" sodipodi:cx="448.50772" id="path4159" style="fill: rgb(255, 255, 255); fill-opacity: 1; stroke: none;" sodipodi:type="arc"/>
      <path transform="matrix(2.19103, 0, 0, 2.44178, -1316.1, 147.788)" d="M 463.91255,78.701393 A 15.404826,14.520943 0 1 1 433.10289,78.701393 A 15.404826,14.520943 0 1 1 463.91255,78.701393 z" sodipodi:ry="14.520943" sodipodi:rx="15.404826" sodipodi:cy="78.701393" sodipodi:cx="448.50772" id="path4159-1" style="fill: rgb(0, 0, 0); fill-opacity: 1; stroke: none;" sodipodi:type="arc"/>
      <path sodipodi:nodetypes="ccccccccccccccccccccccccccccccccccc" d="M 81.431874,52.103192 L 83.957758,918.8434 L 316.70307,918.8434 L 316.70307,578.12654 L 659.54433,918.8434 L 945.24522,918.8434 L 485.59832,465.54191 L 909.53285,52.103192 L 638.11732,52.103192 L 309.5604,370.99315 L 312.08628,52.103192 C 232.67593,50.972544 116.82125,53.23374 81.431874,52.103192 z M 1009.5293,52.103192 L 1245.2324,52.103192 L 1245.2324,918.8434 L 1009.5293,918.8434 L 1009.5293,52.103192 z M 2177.3326,52.103192 L 2413.0368,52.103192 L 2413.0368,918.8434 L 2177.3326,918.8434 L 2177.3326,52.103192 z M 2570.1706,52.103192 L 2809.4456,52.103192 L 2993.3662,335.28049 L 3182.6425,52.103192 L 3425.4883,52.103192 L 3134.4307,478.13113 L 3434.4169,918.8434 L 3193.357,918.8434 L 2993.3662,628.12425 L 2791.5894,918.8434 L 2554.1004,918.8434 L 2857.6574,481.70237 L 2570.1706,52.103192 z" style="overflow: visible; marker: none; fill: rgb(0, 0, 0); fill-opacity: 1; fill-rule: evenodd; stroke: none; stroke-width: 1px; stroke-linecap: butt; stroke-linejoin: miter; stroke-miterlimit: 4; stroke-dasharray: none; stroke-dashoffset: 0pt; stroke-opacity: 1; visibility: visible; display: inline;" id="path2467"/>
      <path sodipodi:nodetypes="csssscssssss" id="path2475" d="M 1475.1439,311.1021 L 1555.9522,485.3454 C 1596.8333,573.49505 1644.2071,519.09286 1664.5392,452.51691 L 1773.1242,96.962757 C 1791.0783,38.173363 1877.9644,34.16844 1851.4076,147.46804 C 1827.7037,248.60009 1666.0681,646.22742 1864.035,558.57814 L 1975.1469,490.39597 C 2028.2005,457.84066 2107.4389,507.1461 2000.3988,573.72964 C 1866.8579,656.79843 1752.1283,736.19219 1690.8022,866.66 C 1654.7898,943.27338 1549.3551,922.0978 1551.407,815.14291 C 1555.8108,585.67364 1441.5964,516.20888 1386.7599,351.50635 C 1343.6329,221.97219 1440.4025,236.18974 1475.1439,311.1021 z" style="overflow: visible; marker: none; fill: rgb(0, 0, 0); fill-opacity: 1; fill-rule: evenodd; stroke: rgb(0, 0, 0); stroke-width: 9.99954px; stroke-linecap: butt; stroke-linejoin: miter; stroke-miterlimit: 4; stroke-dasharray: none; stroke-dashoffset: 0pt; stroke-opacity: 1; visibility: visible; display: inline;"/>
    </g>
  </g>
</svg>