<?xml version="1.0" encoding="iso-8859-1"?>
<!-- Generator: Adobe Illustrator 19.0.0, SVG Export Plug-In . SVG Version: 6.00 Build 0)  -->
<svg version="1.1" id="Layer_1" xmlns="http://www.w3.org/2000/svg" xmlns:xlink="http://www.w3.org/1999/xlink" x="0px" y="0px"
	 viewBox="0 0 466.309 466.309" style="enable-background:new 0 0 466.309 466.309;" xml:space="preserve">
<circle style="fill:#90C5FF;" cx="308.625" cy="160.837" r="138.57"/>
<rect x="69.016" y="280.563" transform="matrix(-0.7071 -0.7071 0.7071 -0.7071 -90.9987 701.6116)" style="fill:#59595A;" width="61.586" height="178.178"/>
<rect x="137.953" y="292.311" transform="matrix(-0.7071 -0.7071 0.7071 -0.7071 75.4308 632.6729)" style="fill:#ABCB57;" width="61.586" height="16.806"/>
<rect x="0.079" y="430.187" transform="matrix(-0.7071 -0.7071 0.7071 -0.7071 -257.4281 770.5503)" style="fill:#ABCB57;" width="61.586" height="16.806"/>
<g>
	<g>
		<polygon style="opacity:0.2;fill:#FFFFFF;enable-background:new    ;" points="254.961,399.535 224.429,387.668 374.939,0 
			405.473,11.847 		"/>
	</g>
	<g>
		<polygon style="opacity:0.2;fill:#FFFFFF;enable-background:new    ;" points="298.66,436.49 268.121,424.616 418.631,36.946 
			449.15,48.777 		"/>
	</g>
</g>
<path style="fill:#59595A;" d="M417.893,51.569c-29.186-29.187-67.992-45.26-109.268-45.26s-80.081,16.073-109.268,45.26
	c-29.186,29.186-45.26,67.992-45.26,109.268c0,35.857,12.136,69.846,34.456,97.288l-25.259,25.259l22.785,22.785l25.259-25.259
	c27.442,22.319,61.43,34.456,97.287,34.456c41.276,0,80.081-16.073,109.268-45.26c29.187-29.187,45.26-67.993,45.26-109.269
	S447.08,80.755,417.893,51.569z M395.325,247.537c-23.158,23.158-53.949,35.912-86.7,35.913c-32.751,0-63.542-12.754-86.7-35.913
	c-23.158-23.158-35.912-53.949-35.913-86.7c0-32.751,12.754-63.542,35.913-86.7c23.158-23.158,53.949-35.912,86.7-35.913
	c32.751,0,63.542,12.754,86.7,35.913s35.912,53.949,35.913,86.7C431.238,193.588,418.484,224.379,395.325,247.537z"/>
<path style="opacity:0.3;fill:#5B5B5F;enable-background:new    ;" d="M308.625,315.365c41.276,0,80.081-16.073,109.268-45.26
	s45.26-67.992,45.26-109.268c0.001-41.276-16.073-80.082-45.26-109.268l-22.568,22.568c23.158,23.158,35.912,53.949,35.913,86.7
	c-0.001,32.751-12.754,63.542-35.913,86.7c-23.158,23.158-53.949,35.912-86.7,35.913c-32.751,0-63.542-12.754-86.7-35.913
	l-20.923,20.923l-1.645,1.645l-24.671,24.671l-5.942,5.942L24.927,444.535l21.774,21.774l11.883-11.883l125.993-125.993
	l11.883-11.883l-10.382-10.382l25.259-25.259C238.78,303.228,272.768,315.365,308.625,315.365z"/>
<g>
</g>
<g>
</g>
<g>
</g>
<g>
</g>
<g>
</g>
<g>
</g>
<g>
</g>
<g>
</g>
<g>
</g>
<g>
</g>
<g>
</g>
<g>
</g>
<g>
</g>
<g>
</g>
<g>
</g>
</svg>
