<?xml version="1.0" encoding="iso-8859-1"?>
<!-- Generator: Adobe Illustrator 19.0.0, SVG Export Plug-In . SVG Version: 6.00 Build 0)  -->
<svg version="1.1" id="Layer_1" xmlns="http://www.w3.org/2000/svg" xmlns:xlink="http://www.w3.org/1999/xlink" x="0px" y="0px"
	 viewBox="0 0 512 512" style="enable-background:new 0 0 512 512;" xml:space="preserve">
<path style="fill:#71DE56;" d="M256,512C114.509,512,0,397.503,0,256C0,114.509,114.497,0,256,0c141.49,0,256,114.497,256,256
	C512,397.49,397.503,512,256,512z"/>
<path style="fill:#2FBD66;" d="M256,0v512c141.503,0,256-114.51,256-256C512,114.497,397.49,0,256,0z"/>
<path style="fill:#EFEFEF;" d="M242.544,386.939L147.266,264.81c-8.711-11.166-0.757-27.565,13.456-27.565h47.919V135.557
	c0-9.425,7.641-17.067,17.067-17.067h60.584c9.425,0,17.067,7.641,17.067,17.067v101.688h47.918c14.215,0,22.165,16.4,13.456,27.565
	l-95.276,122.129C262.623,395.699,249.366,395.684,242.544,386.939z"/>
<path style="fill:#C5D8DF;" d="M351.276,237.246h-47.918V135.558c0-9.425-7.641-17.067-17.067-17.067H256v275.011
	c5.02,0,10.041-2.186,13.457-6.564l95.276-122.129C373.443,253.646,365.492,237.246,351.276,237.246z"/>
<g>
</g>
<g>
</g>
<g>
</g>
<g>
</g>
<g>
</g>
<g>
</g>
<g>
</g>
<g>
</g>
<g>
</g>
<g>
</g>
<g>
</g>
<g>
</g>
<g>
</g>
<g>
</g>
<g>
</g>
</svg>
