<?xml version="1.0" encoding="UTF-8" standalone="no"?>
<!DOCTYPE svg PUBLIC "-//W3C//DTD SVG 1.1//EN" "http://www.w3.org/Graphics/SVG/1.1/DTD/svg11.dtd">
<svg width="100%" height="100%" viewBox="0 0 192 140" version="1.1" xmlns="http://www.w3.org/2000/svg" xmlns:xlink="http://www.w3.org/1999/xlink" xml:space="preserve" xmlns:serif="http://www.serif.com/" style="fill-rule:evenodd;clip-rule:evenodd;stroke-linejoin:round;stroke-miterlimit:2;">
    <g>
        <path d="M42.586,94.196L30.566,94.196L14.928,111.876L14.928,94.196L4.542,94.196L4.542,135.041L14.928,135.041L14.928,125.005L20.354,118.995L31.149,135.041L43.578,135.041L27.415,111.117L42.586,94.196Z" style="fill:white;fill-rule:nonzero;"/>
        <rect x="48.129" y="94.196" width="10.386" height="40.845" style="fill:white;"/>
        <path d="M107.587,124.246L99.593,94.196L89.441,94.196L81.622,124.246L73.628,94.196L62.541,94.196L75.903,135.041L86.64,135.041L94.342,106.8L101.927,135.041L112.605,135.041L126.084,94.196L115.465,94.196L107.587,124.246Z" style="fill:white;fill-rule:nonzero;"/>
        <rect x="129.76" y="94.196" width="10.386" height="40.845" style="fill:white;"/>
        <path d="M172.005,113.685L185.484,94.196L173.289,94.196L165.412,106.099L157.535,94.196L145.456,94.196L159.11,114.152L144.523,135.041L156.601,135.041L165.412,122.029L174.223,135.041L186.651,135.041L172.005,113.685Z" style="fill:white;fill-rule:nonzero;"/>
    </g>
</svg>
