<?xml version="1.0" encoding="iso-8859-1"?>
<!-- Generator: Adobe Illustrator 19.0.0, SVG Export Plug-In . SVG Version: 6.00 Build 0)  -->
<svg version="1.1" id="Layer_1" xmlns="http://www.w3.org/2000/svg" xmlns:xlink="http://www.w3.org/1999/xlink" x="0px" y="0px"
	 viewBox="0 0 502 502" style="enable-background:new 0 0 502 502;" xml:space="preserve">
<g>
	<circle style="fill:#E6E6E6;" cx="251" cy="251" r="241"/>
	<polygon style="fill:#DB4949;" points="405.527,99.362 322.487,319.598 102.25,402.638 185.29,182.402 	"/>
	<g>
		<path d="M428.484,73.517C381.076,26.108,318.044,0,251,0S120.924,26.108,73.517,73.516C26.108,120.924,0,183.956,0,251
			s26.108,130.076,73.516,177.483C120.924,475.892,183.956,502,251,502s130.076-26.108,177.483-73.516
			C475.892,381.076,502,318.044,502,251S475.892,120.924,428.484,73.517z M414.341,414.341C370.711,457.972,312.702,482,251,482
			s-119.711-24.028-163.341-67.659C44.028,370.711,20,312.702,20,251S44.028,131.289,87.659,87.659
			C131.289,44.028,189.298,20,251,20s119.711,24.028,163.341,67.659C457.972,131.289,482,189.298,482,251
			S457.972,370.711,414.341,414.341z"/>
		<path d="M412.598,92.29c-2.778-2.777-6.922-3.672-10.599-2.286l-220.237,83.041c-2.691,1.015-4.814,3.138-5.829,5.829
			l-83.04,220.237c-1.386,3.675-0.492,7.821,2.286,10.599c1.91,1.91,4.467,2.929,7.073,2.929c1.184,0,2.378-0.21,3.526-0.644
			l220.237-83.041c2.691-1.015,4.814-3.138,5.829-5.829l83.04-220.237C416.27,99.214,415.375,95.068,412.598,92.29z
			 M318.598,301.568l-83.634-83.634c-3.905-3.905-10.237-3.905-14.143,0c-3.905,3.905-3.905,10.237,0,14.143l83.634,83.634
			l-185.05,69.773l73.645-195.32l195.32-73.646L318.598,301.568z"/>
		<path d="M213.163,63.586c5.415-1.088,8.922-6.359,7.835-11.773c-1.087-5.415-6.358-8.919-11.773-7.835
			c-40.808,8.197-77.997,28.149-107.547,57.7c-19.679,19.679-35.036,42.577-45.645,68.056c-2.123,5.099,0.29,10.953,5.388,13.076
			c1.256,0.523,2.559,0.771,3.84,0.771c3.917,0,7.636-2.317,9.236-6.159c9.599-23.054,23.502-43.78,41.324-61.602
			C142.573,89.066,176.234,71.004,213.163,63.586z"/>
		<path d="M53.794,209.896c-5.462-0.857-10.572,2.88-11.424,8.336c-2.394,15.32-3.102,30.939-2.104,46.424
			c0.341,5.292,4.74,9.357,9.97,9.357c0.216,0,0.434-0.007,0.653-0.021c5.511-0.355,9.691-5.111,9.336-10.623
			c-0.904-14.026-0.263-28.174,1.905-42.05C62.983,215.862,59.25,210.748,53.794,209.896z"/>
	</g>
</g>
<g>
</g>
<g>
</g>
<g>
</g>
<g>
</g>
<g>
</g>
<g>
</g>
<g>
</g>
<g>
</g>
<g>
</g>
<g>
</g>
<g>
</g>
<g>
</g>
<g>
</g>
<g>
</g>
<g>
</g>
</svg>
