<svg height="512pt" viewBox="0 -58 512.001 512" width="512pt" xmlns="http://www.w3.org/2000/svg"><path d="m329.058594 281.410156h-78.414063v-198.699218c0-2.839844 2.300781-5.144532 5.144531-5.144532h73.269532zm0 0" fill="#ff5757"/><path d="m472.449219 281.410156h-78.222657v-256.417968h73.078126c2.839843 0 5.144531 2.304687 5.144531 5.144531zm0 0" fill="#00d1fc"/><path d="m400.347656 281.410156h-77.808594v-276.265625c0-2.839843 2.304688-5.144531 5.144532-5.144531h67.519531c2.84375 0 5.144531 2.304688 5.144531 5.144531zm0 0" fill="#ffb509"/><path d="m400.347656 281.410156h-24.425781v-281.410156h19.28125c2.839844 0 5.144531 2.304688 5.144531 5.144531zm0 0" fill="#fa0"/><path d="m298.890625 77.566406h23.855469v203.84375h-23.855469zm0 0" fill="#ff4343"/><path d="m369.75 171.59375h-16.613281c-3.410157 0-6.171875-2.761719-6.171875-6.171875v-128.789063c0-3.410156 2.761718-6.175781 6.171875-6.175781h16.613281c3.410156 0 6.171875 2.765625 6.171875 6.175781v128.789063c0 3.410156-2.761719 6.171875-6.171875 6.171875zm0 0" fill="#838383"/><path d="m369.75 171.59375h-8.308594v-141.136719h8.308594c3.410156 0 6.171875 2.765625 6.171875 6.175781v128.789063c0 3.410156-2.761719 6.171875-6.171875 6.171875zm0 0" fill="#5a5a5a"/><path d="m250.644531 128.601562h72.101563v42.992188h-72.101563zm0 0" fill="#9ae7fd"/><path d="m298.890625 128.601562h23.855469v42.992188h-23.855469zm0 0" fill="#64dcfc"/><path d="m472.449219 281.410156h-23.851563v-256.417968h18.707032c2.84375 0 5.144531 2.304687 5.144531 5.144531zm0 0" fill="#00c1fb"/><path d="m400.347656 89.195312h72.101563v54.078126h-72.101563zm0 0" fill="#e7e7e7"/><path d="m448.59375 89.195312h23.855469v54.078126h-23.855469zm0 0" fill="#cecece"/><path d="m112.351562 61.433594c-39.175781 51.082031-16.082031 138.066406-16.082031 138.066406h36.703125s23.09375-86.984375-16.082031-138.066406c-1.148437-1.5-3.386719-1.5-4.539063 0zm0 0" fill="#00d3b4"/><path d="m132.972656 199.496094h-13.335937s21.289062-80.175782-11.679688-131.785156c1.378907-2.160157 2.851563-4.265626 4.425781-6.316407 1.136719-1.484375 3.371094-1.441406 4.507813.039063 39.175781 51.082031 16.082031 138.0625 16.082031 138.0625zm0 0" fill="#00b7a0"/><path d="m71.984375 199.5s-27.039063-36.714844-27.039063-88.929688c0 0 .234376-8.902343.746094-14.140624.183594-1.882813 2.125-3.058594 3.882813-2.351563 11.382812 4.558594 48.558593 25.472656 54.25 105.421875zm0 0" fill="#00d3b4"/><path d="m157.257812 199.5s27.039063-36.714844 27.039063-88.929688c0 0-.230469-8.902343-.742187-14.140624-.1875-1.882813-2.128907-3.058594-3.882813-2.351563-11.386719 4.558594-48.5625 25.472656-54.253906 105.421875zm0 0" fill="#00d3b4"/><path d="m103.828125 199.496094h-13.332031c-4.582032-64.257813-29.5-90.378906-45.007813-100.527344.0625-.890625.132813-1.746094.207031-2.519531.183594-1.890625 2.121094-3.078125 3.882813-2.371094 11.390625 4.566406 48.558594 25.488281 54.25 105.417969zm0 0" fill="#00b7a0"/><path d="m184.296875 110.570312c0 52.214844-27.039063 88.925782-27.039063 88.925782h-13.332031s27.035157-36.710938 27.035157-88.925782c0 0-.164063-6.453124-.53125-11.601562 3.785156-2.476562 7.011718-4 9.242187-4.894531 1.757813-.703125 3.695313.472656 3.878906 2.355469.511719 5.238281.746094 14.140624.746094 14.140624zm0 0" fill="#00b7a0"/><path d="m51.425781 199.683594 10.15625 86.167968h106.078125l10.160156-86.167968c.429688-3.636719-2.414062-6.835938-6.078124-6.835938h-114.242188c-3.664062 0-6.503906 3.199219-6.074219 6.835938zm0 0" fill="#d1a190"/><path d="m177.820312 199.683594-10.15625 86.164062h-22.636718l10.15625-86.164062c.429687-3.632813-2.410156-6.832032-6.074219-6.832032h22.636719c3.664062-.003906 6.503906 3.199219 6.074218 6.832032zm0 0" fill="#c78e7a"/><path d="m67.296875 396.46875h-29.511719c-7.316406 0-13.25-5.929688-13.25-13.246094v-57.75h56.007813v57.75c0 7.316406-5.929688 13.246094-13.246094 13.246094zm0 0" fill="#bfbfbf"/><path d="m474.214844 396.46875h-29.511719c-7.316406 0-13.246094-5.929688-13.246094-13.246094v-57.75h56.003907v57.75c.003906 7.316406-5.929688 13.246094-13.246094 13.246094zm0 0" fill="#bfbfbf"/><path d="m503.769531 337.960938h-495.539062c-4.542969 0-8.230469-3.6875-8.230469-8.234376v-42.652343c0-4.546875 3.683594-8.234375 8.230469-8.234375h495.539062c4.542969 0 8.230469 3.6875 8.230469 8.234375v42.652343c0 4.546876-3.683594 8.234376-8.230469 8.234376zm0 0" fill="#e7e7e7"/><path d="m503.769531 337.960938h-31.320312v-59.121094h31.320312c4.546875 0 8.230469 3.6875 8.230469 8.234375v42.652343c0 4.546876-3.683594 8.234376-8.230469 8.234376zm0 0" fill="#cecece"/><path d="m80.539062 337.957031v45.261719c0 7.316406-5.925781 13.253906-13.242187 13.253906h-20.640625c7.316406 0 13.253906-5.9375 13.253906-13.253906v-45.261719zm0 0" fill="#acacac"/><path d="m487.46875 337.957031v45.261719c0 7.316406-5.9375 13.253906-13.253906 13.253906h-20.640625c7.316406 0 13.25-5.9375 13.25-13.253906v-45.261719zm0 0" fill="#acacac"/><g fill="#838383"><path d="m465.894531 369.351562c0 3.554688-2.878906 6.4375-6.433593 6.4375-3.554688 0-6.4375-2.882812-6.4375-6.4375 0-3.554687 2.882812-6.433593 6.4375-6.433593 3.554687 0 6.433593 2.878906 6.433593 6.433593zm0 0"/><path d="m58.976562 369.351562c0 3.554688-2.882812 6.4375-6.4375 6.4375-3.554687 0-6.433593-2.882812-6.433593-6.4375 0-3.554687 2.878906-6.433593 6.433593-6.433593 3.554688 0 6.4375 2.878906 6.4375 6.433593zm0 0"/></g></svg>